<?xml version="1.0" encoding="UTF-8" standalone="no"?>
<svg
   xmlns:dc="http://purl.org/dc/elements/1.1/"
   xmlns:cc="http://creativecommons.org/ns#"
   xmlns:rdf="http://www.w3.org/1999/02/22-rdf-syntax-ns#"
   xmlns:svg="http://www.w3.org/2000/svg"
   xmlns="http://www.w3.org/2000/svg"
   xmlns:sodipodi="http://sodipodi.sourceforge.net/DTD/sodipodi-0.dtd"
   xmlns:inkscape="http://www.inkscape.org/namespaces/inkscape"
   width="22.009583mm"
   height="21.520411mm"
   viewBox="0 0 77.98671 76.253423"
   id="svg3797"
   version="1.1"
   inkscape:version="0.91 r13725"
   sodipodi:docname="logo.svg">
  <defs
     id="defs3799">
    <clipPath
       clipPathUnits="userSpaceOnUse"
       id="clipPath3712">
      <path
         d="m 0,0 841.89,0 0,595.276 L 0,595.276 0,0 Z"
         id="path3714"
         inkscape:connector-curvature="0" />
    </clipPath>
  </defs>
  <sodipodi:namedview
     id="base"
     pagecolor="#ffffff"
     bordercolor="#666666"
     borderopacity="1.0"
     inkscape:pageopacity="0.0"
     inkscape:pageshadow="2"
     inkscape:zoom="0.35"
     inkscape:cx="-640.29236"
     inkscape:cy="-61.87329"
     inkscape:document-units="px"
     inkscape:current-layer="layer1"
     showgrid="false"
     fit-margin-top="0"
     fit-margin-left="0"
     fit-margin-right="0"
     fit-margin-bottom="0"
     inkscape:window-width="1920"
     inkscape:window-height="1019"
     inkscape:window-x="0"
     inkscape:window-y="27"
     inkscape:window-maximized="1" />
  <metadata
     id="metadata3802">
    <rdf:RDF>
      <cc:Work
         rdf:about="">
        <dc:format>image/svg+xml</dc:format>
        <dc:type
           rdf:resource="http://purl.org/dc/dcmitype/StillImage" />
        <dc:title></dc:title>
      </cc:Work>
    </rdf:RDF>
  </metadata>
  <g
     inkscape:label="Layer 1"
     inkscape:groupmode="layer"
     id="layer1"
     transform="translate(-523.86379,-394.23549)">
    <g
       transform="matrix(1.25,0,0,-1.25,-340.20091,563.66054)"
       id="g3708">
      <g
         id="g3710"
         clip-path="url(#clipPath3712)">
        <g
           id="g3716"
           transform="translate(718.765,81.0599)">
          <path
             d="m 0,0 c -0.327,0.174 -0.692,0.198 -1.042,0.286 -0.674,0.169 -1.329,0.41 -2.003,0.578 -0.809,0.2 -1.565,0.538 -2.336,0.839 -0.41,0.161 -0.804,0.364 -1.202,0.555 -0.072,0.035 -0.126,0.11 -0.188,0.166 0.009,0.021 0.017,0.042 0.026,0.063 0.07,-0.014 0.143,-0.02 0.209,-0.044 0.233,-0.082 0.464,-0.171 0.696,-0.254 0.034,-0.012 0.074,-0.007 0.156,-0.014 -0.053,0.066 -0.075,0.118 -0.114,0.138 -0.314,0.168 -0.631,0.33 -0.949,0.493 -0.43,0.22 -0.867,0.43 -1.292,0.66 -0.532,0.288 -1.066,0.576 -1.581,0.892 -0.568,0.35 -1.117,0.731 -1.674,1.1 -0.115,0.076 -0.231,0.151 -0.339,0.237 -0.048,0.038 -0.086,0.097 -0.113,0.155 -0.01,0.021 0.017,0.073 0.042,0.093 0.017,0.014 0.071,0.008 0.088,-0.009 0.409,-0.428 0.955,-0.647 1.447,-0.947 C -9.686,4.692 -9.186,4.423 -8.684,4.162 -8.503,4.069 -8.292,4.032 -8.077,4 -8.096,4.028 -8.109,4.066 -8.135,4.083 -8.369,4.238 -8.604,4.39 -8.841,4.54 c -0.615,0.388 -1.238,0.763 -1.844,1.165 -0.612,0.404 -1.213,0.826 -1.807,1.256 -0.257,0.186 -0.47,0.424 -0.613,0.722 0.463,-0.379 0.939,-0.731 1.549,-0.858 -0.076,0.067 -0.15,0.137 -0.229,0.201 -0.292,0.236 -0.591,0.464 -0.876,0.708 -0.355,0.306 -0.704,0.619 -1.047,0.939 -0.16,0.149 -0.294,0.326 -0.447,0.483 -0.073,0.074 -0.073,0.151 -0.017,0.215 0.018,0.02 0.118,-0.013 0.166,-0.044 0.73,-0.473 1.451,-0.961 2.189,-1.422 0.353,-0.221 0.739,-0.388 1.106,-0.589 0.422,-0.23 0.838,-0.474 1.259,-0.706 0.616,-0.34 1.234,-0.677 1.854,-1.009 0.291,-0.155 0.589,-0.299 0.886,-0.441 0.285,-0.137 0.573,-0.266 0.86,-0.398 0.009,0.018 0.019,0.036 0.029,0.054 -0.104,0.061 -0.209,0.121 -0.312,0.184 -0.598,0.362 -1.203,0.714 -1.791,1.092 -0.537,0.346 -1.071,0.699 -1.577,1.087 -0.594,0.455 -1.16,0.947 -1.729,1.435 -0.127,0.109 -0.197,0.272 -0.138,0.482 0.054,-0.029 0.106,-0.05 0.151,-0.081 0.183,-0.128 0.359,-0.264 0.545,-0.388 0.363,-0.241 0.724,-0.486 1.097,-0.709 0.476,-0.284 0.957,-0.562 1.449,-0.816 0.524,-0.271 1.063,-0.511 1.598,-0.762 0.388,-0.181 0.781,-0.354 1.168,-0.539 0.058,-0.028 0.11,-0.09 0.141,-0.149 0.115,-0.215 0.22,-0.435 0.341,-0.647 -0.117,0.233 -0.233,0.467 -0.366,0.733 1.382,-0.477 2.724,-0.971 4.121,-1.287 0.006,0.02 0.013,0.04 0.02,0.059 C -1.21,4.546 -1.316,4.578 -1.419,4.619 -1.961,4.836 -2.501,5.058 -3.043,5.274 -3.551,5.477 -4.06,5.676 -4.568,5.876 -4.83,5.98 -5.092,6.082 -5.352,6.188 -5.476,6.239 -5.59,6.312 -5.709,6.373 c -0.897,0.46 -1.794,0.923 -2.671,1.42 -0.703,0.4 -1.408,0.805 -2.011,1.356 -0.203,0.185 -0.41,0.365 -0.604,0.559 -0.04,0.04 -0.063,0.15 -0.037,0.191 0.063,0.099 0.137,0.037 0.218,-0.015 0.441,-0.28 0.882,-0.559 1.332,-0.823 0.404,-0.237 0.812,-0.473 1.233,-0.676 0.58,-0.28 1.17,-0.544 1.766,-0.786 0.536,-0.218 1.084,-0.409 1.634,-0.591 0.329,-0.108 0.67,-0.18 1.009,-0.256 0.103,-0.023 0.215,-0.004 0.322,-0.005 0.007,0.022 0.014,0.044 0.02,0.066 -0.177,0.08 -0.352,0.165 -0.531,0.239 -0.585,0.242 -1.186,0.449 -1.752,0.728 -0.833,0.41 -1.638,0.878 -2.463,1.307 -0.384,0.199 -0.674,0.513 -1.011,0.769 -0.298,0.226 -0.578,0.478 -0.849,0.736 -0.125,0.119 -0.212,0.279 -0.316,0.42 0.017,0.017 0.034,0.033 0.051,0.049 0.174,-0.121 0.343,-0.249 0.523,-0.36 0.454,-0.28 0.909,-0.559 1.372,-0.823 C -8.168,9.703 -7.849,9.549 -7.533,9.392 -6.917,9.085 -6.3,8.78 -5.645,8.561 -5.191,8.408 -4.741,8.241 -4.284,8.097 -3.891,7.973 -3.491,7.874 -3.095,7.763 -2.82,7.687 -2.546,7.604 -2.27,7.533 -1.882,7.433 -1.495,7.329 -1.103,7.249 -0.575,7.142 -0.045,7.046 0.487,6.964 0.889,6.902 1.295,6.844 1.701,6.826 2.32,6.799 2.941,6.801 3.561,6.803 c 0.55,0.002 1.101,0.012 1.65,0.033 0.407,0.015 0.814,0.033 1.217,0.084 0.517,0.065 1.032,0.152 1.543,0.252 0.709,0.139 1.395,0.356 2.05,0.663 0.03,0.014 0.062,0.036 0.093,0.034 0.466,-0.016 0.861,0.215 1.266,0.387 0.623,0.266 1.236,0.562 1.838,0.875 0.345,0.179 0.666,0.41 0.987,0.633 0.421,0.292 0.839,0.589 1.244,0.903 0.299,0.232 0.577,0.492 0.863,0.743 0.296,0.26 0.601,0.512 0.882,0.789 0.34,0.335 0.659,0.692 0.985,1.041 0.16,0.172 0.323,0.342 0.469,0.525 0.157,0.197 0.293,0.41 0.443,0.613 0.084,0.113 0.182,0.216 0.267,0.328 0.088,0.116 0.173,0.235 0.251,0.358 0.321,0.505 0.647,1.006 0.954,1.52 0.113,0.191 0.176,0.412 0.263,0.618 0.069,0.162 0.141,0.323 0.21,0.485 0.126,0.294 0.206,0.62 0.388,0.874 0.185,0.258 0.239,0.541 0.303,0.823 0.104,0.459 0.179,0.927 0.239,1.394 0.06,0.474 0.094,0.953 0.125,1.43 0.024,0.382 0.033,0.765 0.035,1.147 0.002,0.394 -0.008,0.789 -0.021,1.183 -0.011,0.328 -0.025,0.655 -0.056,0.982 -0.02,0.217 -0.066,0.433 -0.111,0.648 -0.111,0.523 -0.214,1.048 -0.347,1.566 -0.118,0.461 -0.254,0.921 -0.417,1.369 -0.138,0.375 -0.32,0.735 -0.495,1.096 -0.182,0.376 -0.355,0.76 -0.577,1.113 -0.251,0.399 -0.544,0.773 -0.833,1.148 -0.143,0.185 -0.34,0.332 -0.469,0.526 -0.073,0.11 -0.104,0.249 -0.208,0.351 -0.185,0.18 -0.376,0.359 -0.537,0.56 -0.298,0.374 -0.669,0.669 -1.032,0.971 -0.419,0.35 -0.86,0.673 -1.292,1.008 -0.209,0.163 -0.413,0.332 -0.628,0.488 -0.285,0.207 -0.58,0.4 -0.865,0.608 -0.104,0.076 -0.177,0.197 -0.285,0.266 -0.254,0.163 -0.521,0.307 -0.783,0.457 -0.325,0.186 -0.644,0.385 -0.979,0.551 -0.309,0.154 -0.632,0.281 -0.956,0.401 -0.253,0.094 -0.516,0.159 -0.774,0.239 C 10.027,39.02 9.601,39.183 9.16,39.285 8.566,39.421 7.961,39.512 7.361,39.617 7.117,39.66 6.869,39.68 6.627,39.727 5.938,39.862 5.245,39.867 4.55,39.809 3.666,39.735 2.777,39.704 1.907,39.508 1.66,39.452 1.414,39.393 1.166,39.339 1.029,39.308 1.011,39.328 1.027,39.488 c 0.884,0.179 1.768,0.369 2.658,0.533 0.367,0.067 0.745,0.082 1.119,0.116 0.341,0.031 0.683,0.08 1.024,0.076 0.5,-0.005 1.002,-0.038 1.501,-0.081 0.405,-0.036 0.808,-0.095 1.21,-0.161 0.655,-0.106 1.294,-0.278 1.914,-0.516 0.319,-0.123 0.638,-0.246 0.954,-0.376 0.463,-0.19 0.929,-0.374 1.383,-0.586 0.374,-0.174 0.73,-0.386 1.095,-0.579 0.248,-0.131 0.501,-0.253 0.747,-0.389 0.169,-0.093 0.331,-0.199 0.491,-0.306 0.358,-0.237 0.729,-0.458 1.066,-0.723 0.632,-0.497 1.244,-1.019 1.863,-1.532 0.537,-0.444 1.033,-0.929 1.485,-1.46 0.236,-0.278 0.49,-0.54 0.736,-0.808 0.017,-0.019 0.038,-0.034 0.084,-0.031 -0.108,0.18 -0.208,0.365 -0.326,0.537 -0.277,0.4 -0.536,0.816 -0.852,1.182 -0.342,0.395 -0.728,0.755 -1.118,1.105 -0.52,0.468 -1.053,0.923 -1.597,1.364 -0.448,0.364 -0.9,0.728 -1.433,0.972 -0.056,0.026 -0.102,0.076 -0.142,0.155 0.048,0 0.105,0.017 0.143,-0.002 0.382,-0.196 0.768,-0.386 1.138,-0.601 0.448,-0.26 0.882,-0.545 1.324,-0.816 0.309,-0.19 0.622,-0.375 0.934,-0.561 0.036,-0.022 0.079,-0.033 0.117,-0.049 0.092,0.125 0.06,0.207 -0.03,0.323 -0.513,0.663 -1.17,1.17 -1.816,1.687 -0.206,0.165 -0.438,0.297 -0.657,0.445 -0.033,0.021 -0.062,0.049 -0.092,0.074 0.008,0.019 0.017,0.038 0.025,0.057 0.085,-0.03 0.18,-0.045 0.254,-0.093 0.346,-0.226 0.679,-0.473 1.032,-0.689 0.547,-0.337 1.01,-0.773 1.492,-1.191 0.297,-0.257 0.642,-0.459 0.969,-0.679 0.036,-0.024 0.098,-0.008 0.147,-0.01 -0.004,0.063 0.016,0.146 -0.017,0.187 -0.134,0.167 -0.279,0.327 -0.431,0.48 -0.166,0.168 -0.346,0.324 -0.516,0.49 -0.029,0.028 -0.037,0.079 -0.054,0.119 0.05,-0.004 0.109,0.008 0.148,-0.015 0.276,-0.159 0.539,-0.344 0.825,-0.484 0.249,-0.122 0.521,-0.196 0.784,-0.291 l 0.038,0.057 c -0.208,0.188 -0.413,0.38 -0.625,0.563 -0.298,0.258 -0.59,0.528 -0.908,0.761 -0.694,0.509 -1.399,1.003 -2.107,1.493 -0.325,0.225 -0.656,0.449 -1.007,0.63 -0.637,0.328 -1.29,0.625 -1.937,0.933 -0.219,0.104 -0.436,0.215 -0.663,0.298 -0.293,0.109 -0.597,0.186 -0.892,0.289 -0.458,0.16 -0.907,0.349 -1.37,0.489 -0.49,0.147 -0.99,0.269 -1.491,0.371 -0.583,0.118 -1.172,0.204 -1.759,0.301 -0.548,0.091 -1.093,0.202 -1.645,0.258 -0.423,0.044 -0.853,0.017 -1.28,0.021 -0.005,-0.024 -0.011,-0.048 -0.016,-0.072 0.163,-0.067 0.32,-0.165 0.49,-0.195 0.536,-0.097 1.077,-0.167 1.615,-0.249 0.388,-0.06 0.775,-0.118 1.162,-0.185 0.38,-0.065 0.763,-0.124 1.138,-0.212 0.568,-0.134 1.133,-0.282 1.694,-0.44 0.941,-0.264 1.856,-0.604 2.749,-0.996 0.69,-0.302 1.359,-0.656 2.022,-1.014 0.187,-0.101 0.322,-0.295 0.481,-0.447 -0.01,-0.016 -0.02,-0.033 -0.031,-0.049 -0.083,0.031 -0.167,0.059 -0.248,0.094 -0.399,0.176 -0.791,0.368 -1.197,0.526 -0.343,0.133 -0.698,0.239 -1.055,0.331 -0.189,0.049 -0.393,0.053 -0.59,0.056 -0.149,10e-4 -0.191,-0.105 -0.097,-0.222 0.082,-0.102 0.178,-0.193 0.259,-0.337 -0.055,0.005 -0.113,0.002 -0.164,0.019 -0.137,0.046 -0.271,0.102 -0.407,0.153 -0.186,0.071 -0.371,0.143 -0.558,0.209 -0.771,0.273 -1.555,0.495 -2.371,0.591 -0.651,0.077 -1.3,0.171 -1.952,0.245 -0.49,0.057 -0.982,0.099 -1.475,0.14 -0.628,0.051 -1.257,0.103 -1.887,0.14 -0.5,0.028 -1.001,0.036 -1.501,0.05 C 2.444,40.977 1.867,40.969 1.294,40.867 1.057,40.825 0.813,40.829 0.572,40.809 0.513,40.804 0.447,40.798 0.397,40.771 0.064,40.587 -0.266,40.399 -0.594,40.208 c -0.055,-0.033 -0.092,-0.095 -0.143,-0.136 -0.074,-0.061 -0.072,-0.123 -0.006,-0.179 0.084,-0.069 0.179,-0.124 0.261,-0.195 0.038,-0.033 0.089,-0.101 0.078,-0.131 -0.019,-0.048 -0.083,-0.107 -0.131,-0.111 -0.536,-0.041 -1.05,-0.17 -1.555,-0.351 -0.448,-0.16 -0.903,-0.3 -1.354,-0.454 -0.093,-0.032 -0.178,-0.087 -0.269,-0.128 -0.321,-0.145 -0.646,-0.282 -0.962,-0.437 -0.147,-0.071 -0.292,-0.16 -0.413,-0.268 -0.733,-0.653 -1.468,-1.303 -2.184,-1.974 -0.462,-0.434 -0.908,-0.888 -1.182,-1.476 -0.199,-0.424 -0.404,-0.846 -0.595,-1.274 -0.046,-0.103 -0.023,-0.239 -0.076,-0.335 -0.158,-0.291 -0.318,-0.578 -0.39,-0.906 -0.004,-0.017 -0.029,-0.03 -0.082,-0.081 -0.039,0.107 -0.097,0.192 -0.093,0.274 0.014,0.35 0.046,0.699 0.07,1.031 -0.013,-0.03 -0.036,-0.088 -0.064,-0.146 -0.028,-0.059 -0.062,-0.116 -0.09,-0.175 -0.394,-0.821 -0.646,-1.691 -0.841,-2.574 -0.116,-0.525 -0.149,-1.068 -0.221,-1.603 -0.011,-0.08 -0.021,-0.16 -0.043,-0.237 -0.007,-0.024 -0.049,-0.048 -0.077,-0.052 -0.024,-0.004 -0.069,0.015 -0.077,0.034 -0.059,0.156 -0.104,0.318 -0.166,0.473 -0.167,0.416 -0.109,0.858 -0.148,1.287 -0.031,0.343 -0.012,0.697 0.039,1.038 0.079,0.537 0.191,1.07 0.312,1.6 0.157,0.683 0.382,1.345 0.673,1.986 0.203,0.447 0.375,0.908 0.572,1.358 0.113,0.258 0.247,0.506 0.371,0.759 0.019,0.037 0.036,0.075 0.042,0.125 -0.528,-0.29 -1.081,-0.538 -1.495,-0.99 -0.245,-0.267 -0.488,-0.541 -0.698,-0.836 -0.229,-0.321 -0.462,-0.652 -0.616,-1.012 -0.221,-0.52 -0.386,-1.064 -0.547,-1.607 -0.136,-0.458 -0.239,-0.927 -0.343,-1.395 -0.064,-0.29 -0.111,-0.584 -0.151,-0.879 -0.043,-0.315 -0.067,-0.632 -0.103,-0.948 -0.058,-0.498 -0.008,-0.998 -0.027,-1.495 -0.032,-0.838 0.192,-1.628 0.379,-2.427 0.097,-0.412 0.212,-0.821 0.345,-1.223 0.06,-0.18 0.2,-0.331 0.277,-0.506 0.114,-0.263 0.203,-0.536 0.304,-0.805 0.034,-0.09 0.087,-0.177 0.105,-0.27 0.113,-0.569 0.23,-1.139 0.188,-1.722 -0.035,-0.485 -0.123,-0.954 -0.388,-1.383 -0.193,-0.313 -0.317,-0.669 -0.508,-0.983 -0.171,-0.28 -0.365,-0.555 -0.596,-0.785 -0.247,-0.246 -0.531,-0.471 -0.834,-0.641 -0.264,-0.147 -0.574,-0.217 -0.87,-0.298 -0.679,-0.186 -1.356,-0.108 -2.028,0.055 -0.309,0.075 -0.618,0.155 -0.922,0.247 -0.108,0.032 -0.208,0.099 -0.301,0.165 -0.415,0.291 -0.847,0.562 -1.232,0.889 -0.293,0.25 -0.534,0.566 -0.781,0.867 -0.196,0.237 -0.383,0.486 -0.543,0.748 -0.104,0.171 -0.151,0.375 -0.224,0.564 -0.109,0.279 -0.243,0.551 -0.323,0.838 -0.198,0.716 -0.3,1.444 -0.237,2.191 0.07,0.824 0.103,1.651 0.189,2.473 0.048,0.459 0.167,0.91 0.259,1.363 0.083,0.416 0.162,0.833 0.263,1.244 0.108,0.444 0.235,0.884 0.364,1.322 0.23,0.783 0.45,1.569 0.705,2.344 0.22,0.666 0.482,1.317 0.727,1.974 0.169,0.454 0.335,0.909 0.517,1.358 0.171,0.423 0.366,0.837 0.543,1.259 0.352,0.837 0.906,1.55 1.404,2.298 0.224,0.334 0.414,0.691 0.643,1.021 0.22,0.317 0.467,0.614 0.71,0.914 0.417,0.513 0.835,1.025 1.262,1.53 0.185,0.218 0.38,0.43 0.59,0.624 0.529,0.493 1.053,0.993 1.609,1.455 0.614,0.511 1.239,1.013 1.931,1.423 0.479,0.284 0.952,0.579 1.432,0.862 0.054,0.032 0.139,0.005 0.201,0.029 0.175,0.067 0.343,0.149 0.517,0.22 0.043,0.017 0.094,0.013 0.142,0.018 -0.033,-0.04 -0.058,-0.093 -0.1,-0.118 -0.413,-0.245 -0.848,-0.457 -1.238,-0.735 -0.292,-0.208 -0.617,-0.358 -0.899,-0.582 -0.778,-0.615 -1.553,-1.229 -2.269,-1.919 -0.669,-0.644 -1.287,-1.332 -1.873,-2.05 -0.189,-0.231 -0.344,-0.491 -0.515,-0.738 0.011,-0.013 0.022,-0.025 0.033,-0.037 0.039,0.02 0.092,0.029 0.116,0.061 0.328,0.429 0.754,0.756 1.155,1.107 0.623,0.544 1.236,1.1 1.882,1.614 0.56,0.445 1.156,0.844 1.743,1.253 0.819,0.572 1.689,1.051 2.613,1.433 0.245,0.102 0.469,0.258 0.716,0.358 0.494,0.198 0.983,0.409 1.506,0.533 0.335,0.08 0.654,0.228 0.982,0.341 0.328,0.113 0.654,0.233 0.987,0.327 0.748,0.211 1.497,0.416 2.25,0.606 0.374,0.094 0.757,0.156 1.139,0.216 0.604,0.094 1.208,0.192 1.816,0.252 C 2.927,49 3.317,48.985 3.703,48.973 4.142,48.959 4.585,48.953 5.019,48.89 5.58,48.809 6.135,48.681 6.69,48.563 6.831,48.533 6.964,48.464 7.101,48.412 7.096,48.384 7.092,48.356 7.087,48.328 6.969,48.319 6.851,48.309 6.733,48.3 6.305,48.268 5.874,48.257 5.45,48.198 5.108,48.15 4.774,48.049 4.438,47.963 4.384,47.949 4.296,47.886 4.301,47.858 c 0.017,-0.099 0.04,-0.224 0.109,-0.283 0.222,-0.189 0.514,-0.143 0.779,-0.177 0.728,-0.091 1.459,-0.165 2.188,-0.246 0.608,-0.068 1.219,-0.114 1.822,-0.21 0.483,-0.077 0.956,-0.219 1.435,-0.324 0.242,-0.052 0.49,-0.073 0.73,-0.133 0.401,-0.099 0.807,-0.193 1.195,-0.333 0.543,-0.197 1.068,-0.444 1.607,-0.653 0.634,-0.245 1.238,-0.542 1.819,-0.897 0.464,-0.284 0.965,-0.508 1.432,-0.788 0.517,-0.312 1.021,-0.647 1.518,-0.991 0.511,-0.354 1.014,-0.722 1.506,-1.102 0.362,-0.279 0.697,-0.593 1.049,-0.884 0.375,-0.309 0.767,-0.597 1.132,-0.917 0.356,-0.312 0.7,-0.64 1.025,-0.985 0.503,-0.533 0.987,-1.085 1.476,-1.632 0.066,-0.073 0.118,-0.16 0.176,-0.241 0.119,-0.167 0.119,-0.173 0.003,-0.374 -0.224,0.257 -0.436,0.522 -0.673,0.764 -0.427,0.436 -0.868,0.859 -1.304,1.287 -0.205,0.201 -0.401,0.412 -0.619,0.597 -0.513,0.435 -1.033,0.86 -1.557,1.281 -0.343,0.276 -0.686,0.555 -1.049,0.804 -0.754,0.518 -1.521,1.018 -2.285,1.522 -0.915,0.605 -1.924,1.035 -2.903,1.517 -0.401,0.198 -0.84,0.32 -1.261,0.479 -0.338,0.128 -0.671,0.272 -1.014,0.387 -0.322,0.109 -0.655,0.186 -0.982,0.281 -0.275,0.08 -0.548,0.166 -0.822,0.248 -0.029,0.009 -0.061,0.011 -0.099,-0.007 0.041,-0.021 0.082,-0.042 0.122,-0.062 -10e-4,-0.008 -0.002,-0.015 -0.003,-0.023 -0.05,0.009 -0.101,0.016 -0.15,0.028 -0.625,0.163 -1.242,0.365 -1.876,0.48 C 8.124,46.4 7.408,46.469 6.695,46.527 6.117,46.574 5.535,46.576 4.954,46.578 4.606,46.579 4.258,46.536 3.909,46.521 3.635,46.509 3.359,46.531 3.088,46.5 2.415,46.423 1.743,46.331 1.074,46.229 0.594,46.156 0.117,46.063 -0.359,45.966 -0.536,45.93 -0.707,45.862 -0.878,45.803 -0.915,45.79 -0.942,45.75 -0.971,45.672 c 0.091,-0.015 0.184,-0.051 0.272,-0.042 0.658,0.069 1.313,0.161 1.972,0.218 0.832,0.073 1.666,0.136 2.501,0.169 C 4.34,46.039 4.909,46.003 5.477,45.991 5.741,45.986 6.005,45.987 6.268,45.969 6.646,45.942 7.025,45.907 7.402,45.861 7.719,45.823 8.033,45.766 8.348,45.715 8.422,45.703 8.494,45.679 8.601,45.652 8.545,45.62 8.523,45.596 8.503,45.598 7.851,45.652 7.199,45.729 6.545,45.759 5.902,45.788 5.257,45.779 4.615,45.681 4.004,45.587 3.388,45.526 2.774,45.458 1.748,45.344 0.73,45.191 -0.242,44.825 c -0.07,-0.026 -0.129,-0.079 -0.165,-0.102 0.771,0.121 1.563,0.268 2.36,0.365 0.552,0.067 1.112,0.061 1.668,0.095 0.825,0.052 1.643,-0.027 2.459,-0.131 0.699,-0.089 1.402,-0.16 2.093,-0.293 0.778,-0.15 1.548,-0.35 2.315,-0.549 0.523,-0.135 1.036,-0.307 1.554,-0.463 0.047,-0.014 0.111,-0.018 0.136,-0.05 0.034,-0.045 0.039,-0.113 0.056,-0.17 -0.045,-0.004 -0.093,-0.02 -0.134,-0.01 -0.727,0.181 -1.447,0.389 -2.18,0.54 C 9.212,44.202 8.494,44.308 7.776,44.393 7.191,44.462 6.599,44.497 6.01,44.504 5.355,44.513 4.694,44.514 4.044,44.441 3.6,44.392 3.141,44.32 2.728,44.103 2.601,44.036 2.457,44 2.321,43.949 c 0.004,-0.013 0.007,-0.026 0.01,-0.039 0.293,0.009 0.586,0.018 0.879,0.027 0.92,0.027 1.839,0.067 2.759,0.074 0.462,0.003 0.923,-0.072 1.385,-0.084 0.417,-0.011 0.816,-0.095 1.216,-0.194 0.238,-0.059 0.484,-0.082 0.725,-0.132 0.583,-0.119 1.17,-0.226 1.747,-0.373 0.491,-0.124 0.967,-0.303 1.453,-0.446 0.877,-0.258 1.716,-0.614 2.515,-1.05 0.784,-0.428 1.542,-0.904 2.312,-1.36 0.886,-0.524 1.615,-1.243 2.394,-1.902 0.607,-0.514 1.197,-1.044 1.726,-1.64 0.065,-0.073 0.145,-0.137 0.229,-0.19 0.047,-0.029 0.115,-0.025 0.173,-0.036 0.013,0.016 0.026,0.032 0.039,0.048 -0.045,0.09 -0.096,0.179 -0.133,0.273 -0.016,0.039 -0.005,0.089 -0.006,0.134 0.041,-0.004 0.093,0.006 0.12,-0.016 0.072,-0.055 0.139,-0.119 0.196,-0.189 0.326,-0.403 0.662,-0.799 0.969,-1.216 0.192,-0.26 0.328,-0.56 0.506,-0.831 0.184,-0.28 0.407,-0.535 0.577,-0.822 0.213,-0.357 0.391,-0.734 0.579,-1.105 0.129,-0.254 0.254,-0.511 0.373,-0.77 0.056,-0.119 0.101,-0.244 0.142,-0.369 0.149,-0.46 0.28,-0.925 0.446,-1.379 0.207,-0.565 0.263,-1.169 0.451,-1.736 0.214,-0.646 0.242,-1.319 0.34,-1.982 0.078,-0.534 0.149,-1.07 0.2,-1.608 0.029,-0.294 0.008,-0.593 0.011,-0.89 0.007,-0.7 0.02,-1.399 0.018,-2.099 0,-0.269 -0.035,-0.537 -0.053,-0.806 -0.004,-0.05 -0.005,-0.099 -0.008,-0.149 -0.02,-0.322 -0.021,-0.647 -0.065,-0.966 -0.051,-0.363 -0.131,-0.724 -0.216,-1.081 -0.146,-0.616 -0.282,-1.236 -0.463,-1.841 -0.316,-1.051 -0.654,-2.095 -1.001,-3.136 -0.129,-0.385 -0.311,-0.752 -0.458,-1.138 0.058,0.08 0.119,0.157 0.172,0.239 0.369,0.575 0.748,1.145 1.099,1.731 0.147,0.243 0.24,0.52 0.345,0.786 0.22,0.552 0.445,1.103 0.642,1.663 0.146,0.415 0.247,0.845 0.376,1.267 0.077,0.253 0.184,0.497 0.249,0.753 0.094,0.373 0.161,0.753 0.244,1.129 0.161,0.734 0.204,1.479 0.171,2.225 -0.017,0.367 -0.095,0.732 -0.144,1.098 -0.007,0.053 -0.014,0.109 -0.003,0.16 0.006,0.026 0.05,0.053 0.082,0.06 0.015,0.003 0.051,-0.033 0.06,-0.058 0.128,-0.358 0.287,-0.709 0.373,-1.077 0.116,-0.498 0.194,-1.006 0.252,-1.515 0.049,-0.432 0.063,-0.87 0.06,-1.306 -0.003,-0.428 -0.044,-0.856 -0.075,-1.283 -0.019,-0.274 -0.05,-0.547 -0.076,-0.821 0.015,-0.003 0.029,-0.006 0.044,-0.009 0.041,0.173 0.096,0.345 0.121,0.52 0.067,0.467 0.143,0.935 0.176,1.404 0.031,0.449 0.011,0.901 0.013,1.351 0,0.027 -0.023,0.059 -0.014,0.08 0.031,0.081 0.07,0.159 0.107,0.239 0.033,-0.07 0.085,-0.136 0.098,-0.208 0.195,-1.077 0.213,-2.16 0.128,-3.249 C 28.834,17.152 28.7,16.205 28.444,15.279 28.363,14.986 28.25,14.703 28.147,14.417 27.839,13.557 27.385,12.772 26.906,11.999 26.59,11.488 26.297,10.963 25.981,10.452 25.796,10.153 25.583,9.872 25.39,9.577 25.268,9.393 25.18,9.183 25.042,9.012 24.731,8.626 24.41,8.246 24.071,7.884 23.766,7.559 23.428,7.264 23.109,6.951 22.701,6.55 22.304,6.136 21.888,5.742 21.593,5.463 21.279,5.204 20.965,4.945 20.634,4.671 20.265,4.436 19.965,4.133 19.589,3.753 19.122,3.512 18.701,3.203 18.297,2.906 17.872,2.638 17.45,2.367 17.023,2.093 16.589,1.83 16.157,1.564 15.957,1.44 15.757,1.314 15.552,1.197 15.128,0.955 14.703,0.713 14.273,0.482 13.986,0.328 13.689,0.196 13.399,0.049 13.158,-0.073 12.929,-0.22 12.682,-0.326 12.347,-0.471 11.999,-0.589 11.656,-0.717 11.337,-0.837 11.024,-0.982 10.696,-1.07 9.911,-1.28 9.123,-1.486 8.327,-1.652 7.7,-1.782 7.06,-1.85 6.426,-1.946 6.12,-1.992 5.816,-2.072 5.51,-2.082 4.957,-2.099 4.418,-2.247 3.857,-2.212 3.373,-2.182 2.884,-2.245 2.397,-2.249 2.038,-2.251 1.678,-2.227 1.319,-2.21 c -0.28,0.014 -0.56,0.035 -0.84,0.057 -0.131,0.011 -0.262,0.032 -0.393,0.051 -0.56,0.083 -1.122,0.158 -1.68,0.253 -0.325,0.056 -0.644,0.149 -0.967,0.22 -0.37,0.08 -0.743,0.148 -1.111,0.234 -0.214,0.051 -0.424,0.122 -0.633,0.193 -0.595,0.199 -1.187,0.409 -1.784,0.603 -0.671,0.218 -1.305,0.517 -1.93,0.841 -0.493,0.256 -1.006,0.479 -1.482,0.763 -0.667,0.398 -1.32,0.822 -1.919,1.323 -0.456,0.382 -0.945,0.725 -1.402,1.107 -0.385,0.321 -0.758,0.66 -1.113,1.014 -0.503,0.501 -0.989,1.02 -1.473,1.54 -0.131,0.142 -0.226,0.318 -0.337,0.478 0.016,0.013 0.031,0.025 0.047,0.037 0.116,-0.131 0.226,-0.269 0.35,-0.393 0.264,-0.262 0.528,-0.526 0.807,-0.773 0.606,-0.535 1.228,-1.054 1.832,-1.591 0.559,-0.498 1.179,-0.911 1.813,-1.298 0.308,-0.187 0.657,-0.306 0.988,-0.454 0.016,-0.008 0.039,-0.001 0.081,0 -0.321,0.256 -0.628,0.492 -0.925,0.741 -0.248,0.208 -0.489,0.425 -0.724,0.648 -0.542,0.512 -1.084,1.024 -1.616,1.547 -0.259,0.255 -0.499,0.529 -0.738,0.804 -0.056,0.065 -0.075,0.166 -0.098,0.254 -0.006,0.023 0.031,0.074 0.058,0.083 0.024,0.009 0.072,-0.016 0.091,-0.04 0.398,-0.507 0.873,-0.931 1.382,-1.322 0.305,-0.236 0.588,-0.503 0.908,-0.717 0.744,-0.5 1.48,-1.014 2.297,-1.396 0.284,-0.132 0.544,-0.318 0.831,-0.442 0.397,-0.171 0.783,-0.396 1.28,-0.383 -0.354,0.294 -0.683,0.565 -1.01,0.838 -0.03,0.024 -0.065,0.049 -0.08,0.082 -0.016,0.035 -0.028,0.089 -0.01,0.116 0.014,0.023 0.08,0.034 0.109,0.02 C -7.949,2.771 -7.831,2.702 -7.71,2.639 -7.433,2.493 -7.161,2.334 -6.876,2.205 -6.499,2.035 -6.108,1.899 -5.731,1.73 -5.427,1.594 -5.128,1.451 -4.805,1.354 -4.486,1.257 -4.183,1.107 -3.869,0.993 -3.45,0.842 -3.029,0.695 -2.605,0.559 -2.272,0.452 -1.936,0.35 -1.595,0.273 -1.069,0.156 -0.539,0.062 -0.01,-0.042 -0.007,-0.028 -0.003,-0.014 0,0"
             style="fill:#40bea2;fill-opacity:1;fill-rule:nonzero;stroke:none"
             id="path3718"
             inkscape:connector-curvature="0" />
        </g>
        <g
           id="g3720"
           transform="translate(746.433,88.1003)">
          <path
             d="M 0,0 C -0.364,-0.26 -0.588,-0.643 -0.872,-0.975 -1.42,-1.612 -2.035,-2.192 -2.58,-2.832 -3.234,-3.6 -4.009,-4.237 -4.751,-4.909 c -0.395,-0.358 -0.828,-0.675 -1.251,-1.002 -0.077,-0.059 -0.186,-0.077 -0.28,-0.114 -0.019,0.02 -0.037,0.041 -0.055,0.062 0.053,0.068 0.099,0.144 0.16,0.203 0.215,0.208 0.436,0.41 0.652,0.616 0.031,0.03 0.047,0.076 0.099,0.162 -0.1,-0.022 -0.168,-0.018 -0.211,-0.049 -0.351,-0.25 -0.699,-0.506 -1.046,-0.762 -0.471,-0.348 -0.934,-0.707 -1.413,-1.044 -0.599,-0.421 -1.199,-0.843 -1.82,-1.23 -0.686,-0.427 -1.396,-0.815 -2.096,-1.219 -0.144,-0.084 -0.289,-0.169 -0.439,-0.239 -0.069,-0.032 -0.153,-0.041 -0.229,-0.039 -0.029,0 -0.071,0.058 -0.079,0.096 -0.006,0.025 0.03,0.081 0.057,0.09 0.685,0.212 1.218,0.686 1.808,1.056 0.58,0.364 1.141,0.76 1.695,1.164 0.199,0.145 0.353,0.353 0.504,0.569 -0.041,-0.005 -0.089,0.002 -0.122,-0.018 -0.293,-0.17 -0.585,-0.342 -0.875,-0.518 -0.753,-0.456 -1.496,-0.929 -2.258,-1.369 -0.769,-0.444 -1.55,-0.867 -2.337,-1.278 -0.34,-0.178 -0.714,-0.28 -1.113,-0.274 0.66,0.297 1.299,0.622 1.766,1.214 -0.114,-0.046 -0.229,-0.089 -0.341,-0.14 -0.414,-0.188 -0.822,-0.389 -1.241,-0.565 -0.523,-0.221 -1.051,-0.429 -1.582,-0.628 -0.248,-0.092 -0.512,-0.142 -0.765,-0.224 -0.12,-0.038 -0.203,0.003 -0.241,0.098 -0.013,0.03 0.077,0.122 0.136,0.157 0.907,0.535 1.825,1.053 2.723,1.603 0.43,0.263 0.82,0.591 1.235,0.88 0.478,0.333 0.966,0.651 1.446,0.982 0.7,0.484 1.399,0.971 2.093,1.464 0.326,0.231 0.642,0.476 0.957,0.721 0.302,0.235 0.597,0.478 0.895,0.717 -0.015,0.02 -0.029,0.04 -0.043,0.06 -0.122,-0.079 -0.244,-0.161 -0.367,-0.238 -0.716,-0.452 -1.424,-0.918 -2.151,-1.351 -0.664,-0.395 -1.335,-0.782 -2.029,-1.121 -0.814,-0.397 -1.653,-0.745 -2.488,-1.097 -0.187,-0.079 -0.401,-0.067 -0.597,0.11 0.06,0.043 0.112,0.088 0.17,0.12 0.237,0.129 0.48,0.247 0.714,0.381 0.457,0.263 0.917,0.521 1.361,0.806 0.565,0.362 1.126,0.732 1.667,1.128 0.575,0.422 1.127,0.876 1.687,1.319 0.407,0.323 0.806,0.655 1.215,0.974 0.062,0.049 0.157,0.071 0.238,0.073 0.295,0.009 0.59,0.003 0.885,0.019 l -0.992,0 c 1.263,1.24 2.524,2.427 3.619,3.769 C -5.447,1.203 -5.465,1.221 -5.483,1.239 -5.578,1.145 -5.67,1.047 -5.77,0.958 -6.298,0.488 -6.829,0.022 -7.357,-0.448 c -0.494,-0.441 -0.984,-0.885 -1.476,-1.327 -0.253,-0.227 -0.505,-0.456 -0.761,-0.68 -0.121,-0.107 -0.263,-0.191 -0.392,-0.287 -0.983,-0.724 -1.969,-1.445 -2.982,-2.126 -0.812,-0.546 -1.632,-1.091 -2.554,-1.447 -0.31,-0.12 -0.618,-0.247 -0.932,-0.353 -0.065,-0.021 -0.197,0.013 -0.227,0.064 -0.073,0.122 0.035,0.169 0.134,0.229 0.541,0.325 1.081,0.653 1.61,0.998 0.476,0.31 0.951,0.623 1.4,0.97 0.616,0.478 1.219,0.973 1.804,1.489 0.526,0.463 1.029,0.953 1.522,1.45 0.296,0.298 0.558,0.629 0.823,0.955 0.081,0.099 0.121,0.23 0.179,0.346 -0.02,0.02 -0.04,0.039 -0.06,0.058 -0.183,-0.149 -0.369,-0.293 -0.546,-0.447 -0.578,-0.502 -1.127,-1.042 -1.735,-1.504 -0.894,-0.682 -1.836,-1.301 -2.745,-1.963 -0.424,-0.308 -0.92,-0.453 -1.379,-0.68 -0.407,-0.2 -0.831,-0.367 -1.257,-0.522 -0.196,-0.071 -0.416,-0.078 -0.625,-0.114 -0.009,0.027 -0.017,0.054 -0.026,0.08 0.225,0.124 0.455,0.238 0.673,0.373 0.548,0.341 1.096,0.683 1.633,1.041 0.355,0.237 0.693,0.5 1.034,0.757 0.665,0.502 1.328,1.006 1.92,1.596 0.411,0.41 0.835,0.807 1.238,1.224 0.346,0.359 0.669,0.739 1.003,1.108 0.232,0.257 0.469,0.509 0.696,0.77 0.317,0.366 0.639,0.729 0.937,1.111 0.401,0.513 0.791,1.036 1.167,1.567 0.285,0.402 0.566,0.811 0.805,1.241 0.364,0.656 0.697,1.33 1.03,2.003 0.295,0.596 0.581,1.198 0.856,1.805 0.203,0.448 0.403,0.9 0.566,1.364 0.208,0.595 0.393,1.199 0.56,1.807 0.232,0.843 0.368,1.703 0.389,2.579 0.001,0.04 -0.005,0.086 0.013,0.119 0.27,0.496 0.233,1.049 0.264,1.58 0.05,0.819 0.06,1.642 0.046,2.463 -0.008,0.472 -0.084,0.944 -0.153,1.412 -0.089,0.613 -0.185,1.227 -0.306,1.834 -0.09,0.45 -0.221,0.892 -0.339,1.336 -0.122,0.462 -0.23,0.929 -0.378,1.382 -0.18,0.55 -0.394,1.088 -0.596,1.63 -0.1,0.266 -0.195,0.534 -0.315,0.791 -0.129,0.277 -0.287,0.539 -0.425,0.811 -0.077,0.152 -0.135,0.314 -0.211,0.467 -0.078,0.158 -0.161,0.313 -0.252,0.464 -0.374,0.621 -0.741,1.246 -1.132,1.855 -0.145,0.226 -0.351,0.413 -0.527,0.62 -0.139,0.162 -0.274,0.326 -0.412,0.489 -0.25,0.295 -0.561,0.557 -0.737,0.891 -0.179,0.34 -0.457,0.552 -0.728,0.773 -0.442,0.361 -0.907,0.695 -1.381,1.012 -0.482,0.321 -0.981,0.617 -1.482,0.908 -0.4,0.232 -0.81,0.448 -1.223,0.657 -0.426,0.215 -0.859,0.417 -1.293,0.616 -0.361,0.165 -0.724,0.327 -1.093,0.47 -0.247,0.096 -0.506,0.163 -0.763,0.23 -0.626,0.162 -1.251,0.334 -1.883,0.47 -0.564,0.121 -1.135,0.222 -1.708,0.287 -0.482,0.054 -0.97,0.051 -1.455,0.057 -0.506,0.005 -1.015,0.025 -1.517,-0.025 -0.568,-0.056 -1.132,-0.172 -1.694,-0.282 -0.278,-0.055 -0.543,-0.189 -0.823,-0.224 -0.159,-0.019 -0.326,0.022 -0.493,-0.036 -0.295,-0.103 -0.591,-0.213 -0.896,-0.279 -0.566,-0.121 -1.086,-0.364 -1.609,-0.593 -0.605,-0.266 -1.194,-0.569 -1.79,-0.855 -0.289,-0.139 -0.583,-0.269 -0.868,-0.417 -0.378,-0.197 -0.746,-0.413 -1.125,-0.608 -0.139,-0.072 -0.31,-0.086 -0.443,-0.166 -0.313,-0.188 -0.614,-0.398 -0.918,-0.602 -0.377,-0.251 -0.764,-0.489 -1.125,-0.762 -0.333,-0.252 -0.646,-0.534 -0.952,-0.819 -0.238,-0.223 -0.45,-0.474 -0.676,-0.71 -0.379,-0.397 -0.787,-0.771 -1.134,-1.194 -0.469,-0.57 -0.894,-1.175 -1.332,-1.769 -0.178,-0.241 -0.334,-0.499 -0.516,-0.736 -0.518,-0.673 -0.897,-1.421 -1.21,-2.206 -0.397,-0.997 -0.843,-1.976 -1.101,-3.024 -0.073,-0.298 -0.143,-0.597 -0.217,-0.894 -0.042,-0.166 -0.072,-0.174 -0.237,-0.07 0.283,1.053 0.556,2.114 0.858,3.166 0.125,0.435 0.313,0.852 0.478,1.275 0.151,0.386 0.283,0.783 0.471,1.15 0.276,0.54 0.582,1.065 0.899,1.582 0.257,0.42 0.54,0.825 0.827,1.224 0.47,0.652 1.001,1.252 1.594,1.795 0.305,0.279 0.61,0.558 0.921,0.83 0.457,0.399 0.908,0.805 1.382,1.182 0.391,0.311 0.813,0.582 1.219,0.873 0.276,0.198 0.545,0.407 0.825,0.6 0.192,0.132 0.394,0.25 0.597,0.366 0.45,0.26 0.89,0.542 1.358,0.764 0.88,0.417 1.776,0.798 2.666,1.192 0.771,0.341 1.565,0.617 2.384,0.819 0.428,0.106 0.849,0.239 1.273,0.36 0.029,0.009 0.056,0.024 0.078,0.075 -0.252,-0.02 -0.507,-0.027 -0.758,-0.063 -0.582,-0.084 -1.172,-0.14 -1.74,-0.285 -0.612,-0.156 -1.211,-0.381 -1.8,-0.613 -0.789,-0.311 -1.569,-0.643 -2.341,-0.994 -0.636,-0.289 -1.275,-0.582 -1.827,-1.027 -0.058,-0.047 -0.137,-0.069 -0.244,-0.07 0.026,0.052 0.038,0.123 0.08,0.153 0.418,0.308 0.832,0.623 1.265,0.909 0.524,0.345 1.067,0.66 1.599,0.993 0.373,0.232 0.743,0.471 1.112,0.709 0.043,0.028 0.078,0.067 0.116,0.101 -0.085,0.167 -0.192,0.176 -0.365,0.141 -0.996,-0.198 -1.9,-0.636 -2.809,-1.056 -0.29,-0.134 -0.558,-0.314 -0.836,-0.472 -0.042,-0.023 -0.087,-0.04 -0.131,-0.059 -0.016,0.019 -0.031,0.039 -0.047,0.058 0.078,0.076 0.146,0.171 0.237,0.224 0.432,0.254 0.88,0.481 1.304,0.746 0.66,0.411 1.383,0.677 2.095,0.974 0.439,0.182 0.844,0.447 1.26,0.683 0.045,0.025 0.061,0.101 0.09,0.154 -0.071,0.029 -0.15,0.095 -0.212,0.082 -0.254,-0.056 -0.505,-0.126 -0.752,-0.208 -0.273,-0.089 -0.539,-0.199 -0.81,-0.294 -0.046,-0.016 -0.105,0.003 -0.158,0.005 0.031,0.052 0.05,0.122 0.096,0.153 0.321,0.213 0.664,0.399 0.969,0.632 0.267,0.204 0.495,0.459 0.74,0.692 -0.014,0.024 -0.028,0.048 -0.042,0.072 -0.316,-0.124 -0.634,-0.242 -0.947,-0.372 -0.441,-0.185 -0.89,-0.355 -1.314,-0.573 -0.927,-0.477 -1.843,-0.974 -2.756,-1.476 -0.42,-0.231 -0.841,-0.469 -1.226,-0.751 -0.7,-0.512 -1.374,-1.059 -2.057,-1.594 -0.231,-0.181 -0.468,-0.357 -0.681,-0.557 -0.276,-0.259 -0.524,-0.547 -0.795,-0.811 -0.42,-0.41 -0.867,-0.793 -1.269,-1.22 -0.425,-0.451 -0.826,-0.927 -1.207,-1.415 -0.443,-0.567 -0.855,-1.159 -1.277,-1.742 -0.394,-0.545 -0.809,-1.076 -1.168,-1.642 -0.275,-0.435 -0.478,-0.916 -0.713,-1.376 0.023,-0.019 0.046,-0.037 0.069,-0.056 0.16,0.14 0.351,0.258 0.476,0.425 0.394,0.529 0.762,1.077 1.142,1.616 0.274,0.387 0.547,0.775 0.827,1.158 0.276,0.377 0.547,0.759 0.845,1.118 0.452,0.543 0.917,1.075 1.392,1.598 0.794,0.876 1.656,1.684 2.563,2.44 0.7,0.584 1.445,1.117 2.191,1.642 0.209,0.148 0.493,0.19 0.743,0.28 0.012,-0.02 0.025,-0.04 0.037,-0.06 -0.079,-0.073 -0.154,-0.15 -0.237,-0.218 -0.405,-0.338 -0.825,-0.659 -1.215,-1.013 -0.329,-0.3 -0.637,-0.627 -0.929,-0.964 -0.155,-0.178 -0.27,-0.396 -0.378,-0.609 -0.083,-0.16 0.009,-0.263 0.187,-0.224 0.155,0.034 0.306,0.088 0.506,0.098 -0.036,-0.056 -0.064,-0.121 -0.11,-0.167 -0.124,-0.124 -0.257,-0.239 -0.386,-0.358 -0.176,-0.164 -0.355,-0.325 -0.527,-0.492 -0.712,-0.688 -1.376,-1.417 -1.921,-2.249 -0.435,-0.664 -0.887,-1.317 -1.32,-1.982 -0.326,-0.501 -0.638,-1.011 -0.947,-1.522 -0.396,-0.654 -0.792,-1.307 -1.171,-1.97 -0.302,-0.525 -0.58,-1.064 -0.866,-1.598 -0.33,-0.618 -0.632,-1.248 -0.832,-1.924 -0.082,-0.279 -0.219,-0.542 -0.326,-0.813 -0.027,-0.067 -0.057,-0.141 -0.054,-0.211 0.02,-0.459 0.044,-0.918 0.075,-1.377 0.005,-0.077 0.053,-0.151 0.07,-0.228 0.025,-0.113 0.094,-0.145 0.19,-0.103 0.121,0.053 0.232,0.126 0.352,0.177 0.057,0.023 0.158,0.042 0.184,0.014 0.042,-0.046 0.072,-0.147 0.05,-0.202 -0.245,-0.603 -0.382,-1.23 -0.46,-1.874 -0.068,-0.572 -0.162,-1.141 -0.239,-1.712 -0.016,-0.118 -0.003,-0.24 -0.007,-0.36 -0.016,-0.426 -0.043,-0.852 -0.046,-1.278 -0.002,-0.198 0.016,-0.403 0.067,-0.593 0.311,-1.146 0.619,-2.294 0.959,-3.432 0.22,-0.734 0.472,-1.463 0.96,-2.077 0.353,-0.445 0.699,-0.895 1.059,-1.333 0.087,-0.105 0.246,-0.154 0.322,-0.263 0.23,-0.328 0.455,-0.657 0.771,-0.912 0.016,-0.014 0.017,-0.048 0.044,-0.133 -0.137,0.017 -0.26,-0.001 -0.348,0.047 -0.371,0.205 -0.732,0.428 -1.079,0.634 0.025,-0.03 0.076,-0.088 0.124,-0.148 0.049,-0.063 0.092,-0.13 0.141,-0.193 0.677,-0.87 1.483,-1.612 2.334,-2.301 0.506,-0.409 1.076,-0.738 1.617,-1.105 0.081,-0.055 0.162,-0.11 0.234,-0.175 0.022,-0.02 0.026,-0.078 0.015,-0.111 -0.01,-0.028 -0.054,-0.067 -0.079,-0.064 -0.201,0.02 -0.401,0.058 -0.602,0.074 -0.541,0.044 -0.989,0.346 -1.475,0.535 -0.387,0.152 -0.761,0.364 -1.103,0.603 -0.538,0.376 -1.055,0.785 -1.564,1.202 -0.656,0.539 -1.251,1.141 -1.788,1.802 -0.375,0.461 -0.781,0.897 -1.162,1.353 -0.218,0.261 -0.415,0.541 -0.621,0.812 -0.031,0.04 -0.063,0.079 -0.113,0.113 0.028,-0.729 -0.002,-1.462 0.264,-2.154 0.158,-0.41 0.322,-0.821 0.528,-1.208 0.225,-0.421 0.458,-0.853 0.765,-1.213 0.443,-0.52 0.944,-0.994 1.444,-1.461 0.424,-0.395 0.876,-0.76 1.326,-1.125 0.28,-0.226 0.574,-0.436 0.871,-0.638 0.318,-0.217 0.649,-0.414 0.971,-0.624 0.508,-0.332 1.077,-0.548 1.605,-0.837 0.89,-0.487 1.868,-0.671 2.834,-0.9 0.499,-0.118 1.004,-0.214 1.511,-0.287 0.227,-0.032 0.466,0.039 0.698,0.027 0.346,-0.019 0.691,-0.07 1.036,-0.105 0.116,-0.012 0.239,-0.002 0.35,-0.032 0.676,-0.186 1.358,-0.366 1.967,-0.727 0.505,-0.3 0.967,-0.648 1.288,-1.167 0.234,-0.378 0.553,-0.705 0.79,-1.082 0.211,-0.335 0.405,-0.695 0.529,-1.069 0.133,-0.401 0.223,-0.829 0.243,-1.25 0.017,-0.365 -0.074,-0.739 -0.146,-1.103 -0.166,-0.836 -0.616,-1.527 -1.155,-2.167 -0.248,-0.294 -0.502,-0.585 -0.766,-0.865 -0.093,-0.099 -0.22,-0.172 -0.341,-0.238 -0.539,-0.292 -1.066,-0.614 -1.628,-0.853 -0.43,-0.184 -0.902,-0.273 -1.361,-0.379 -0.363,-0.084 -0.734,-0.152 -1.104,-0.183 -0.241,-0.021 -0.488,0.039 -0.733,0.061 -0.361,0.033 -0.727,0.034 -1.081,0.103 -0.882,0.172 -1.726,0.455 -2.502,0.927 -0.855,0.52 -1.733,1.003 -2.577,1.54 -0.47,0.299 -0.894,0.673 -1.336,1.016 -0.405,0.315 -0.814,0.625 -1.206,0.957 -0.422,0.358 -0.829,0.733 -1.235,1.109 -0.724,0.671 -1.457,1.334 -2.158,2.029 -0.603,0.598 -1.167,1.234 -1.746,1.854 -0.4,0.429 -0.804,0.854 -1.191,1.293 -0.367,0.414 -0.71,0.849 -1.071,1.269 -0.717,0.833 -1.19,1.818 -1.73,2.762 -0.242,0.422 -0.527,0.821 -0.76,1.248 -0.224,0.409 -0.413,0.837 -0.606,1.262 -0.331,0.729 -0.66,1.459 -0.976,2.193 -0.137,0.318 -0.26,0.645 -0.358,0.977 -0.248,0.839 -0.506,1.677 -0.707,2.528 -0.222,0.942 -0.428,1.89 -0.498,2.861 -0.049,0.672 -0.113,1.343 -0.161,2.016 -0.005,0.075 0.07,0.154 0.078,0.234 0.021,0.225 0.023,0.453 0.04,0.679 0.005,0.055 0.038,0.109 0.058,0.163 0.025,-0.057 0.07,-0.113 0.074,-0.172 0.042,-0.579 0.036,-1.166 0.127,-1.737 0.068,-0.429 0.055,-0.862 0.145,-1.289 0.246,-1.175 0.492,-2.347 0.853,-3.495 0.337,-1.072 0.748,-2.113 1.209,-3.135 0.149,-0.331 0.347,-0.639 0.522,-0.957 0.019,0.005 0.038,0.011 0.057,0.016 0,0.053 0.019,0.116 -0.003,0.159 -0.287,0.587 -0.412,1.224 -0.575,1.849 -0.253,0.968 -0.524,1.932 -0.732,2.91 -0.18,0.846 -0.29,1.708 -0.417,2.565 -0.177,1.196 -0.225,2.397 -0.141,3.604 0.023,0.321 -0.026,0.648 0,0.969 0.052,0.642 0.088,1.286 0.235,1.92 0.095,0.406 0.107,0.831 0.162,1.247 0.054,0.416 0.101,0.834 0.179,1.246 0.175,0.924 0.357,1.846 0.559,2.765 0.1,0.455 0.239,0.904 0.38,1.349 0.225,0.706 0.445,1.413 0.708,2.104 0.165,0.435 0.393,0.849 0.614,1.26 0.252,0.469 0.498,0.945 0.8,1.381 0.391,0.565 0.829,1.096 1.257,1.634 0.109,0.137 0.256,0.243 0.385,0.364 0.028,-0.02 0.056,-0.041 0.084,-0.061 -0.054,-0.133 -0.107,-0.266 -0.161,-0.399 -0.196,-0.481 -0.417,-0.954 -0.582,-1.445 -0.133,-0.396 -0.204,-0.813 -0.292,-1.223 -0.014,-0.065 0.007,-0.195 0.039,-0.205 0.117,-0.035 0.265,-0.077 0.366,-0.034 0.325,0.138 0.433,0.479 0.612,0.748 0.492,0.739 0.967,1.491 1.449,2.237 0.401,0.622 0.782,1.259 1.212,1.86 0.344,0.482 0.752,0.917 1.125,1.38 0.187,0.233 0.344,0.491 0.538,0.719 0.324,0.381 0.645,0.77 1.007,1.114 0.506,0.482 1.057,0.917 1.574,1.388 0.608,0.555 1.257,1.049 1.955,1.486 0.558,0.35 1.071,0.771 1.627,1.125 0.617,0.393 1.252,0.758 1.893,1.11 0.66,0.363 1.33,0.709 2.007,1.037 0.498,0.24 1.019,0.433 1.525,0.658 0.537,0.239 1.06,0.509 1.604,0.731 0.53,0.217 1.072,0.412 1.62,0.578 0.85,0.258 1.709,0.483 2.565,0.718 0.116,0.032 0.238,0.041 0.357,0.06 0.245,0.039 0.252,0.036 0.406,-0.198 -0.399,-0.105 -0.801,-0.191 -1.19,-0.317 -0.704,-0.227 -1.4,-0.476 -2.099,-0.718 -0.328,-0.113 -0.663,-0.211 -0.981,-0.347 -0.748,-0.321 -1.489,-0.655 -2.229,-0.995 -0.484,-0.223 -0.972,-0.443 -1.437,-0.702 -0.969,-0.538 -1.924,-1.098 -2.883,-1.653 -1.149,-0.665 -2.159,-1.525 -3.211,-2.325 -0.431,-0.328 -0.8,-0.738 -1.199,-1.108 -0.322,-0.297 -0.658,-0.58 -0.968,-0.889 -0.291,-0.291 -0.555,-0.61 -0.834,-0.912 -0.235,-0.255 -0.475,-0.504 -0.712,-0.757 -0.026,-0.027 -0.045,-0.06 -0.047,-0.11 0.045,0.032 0.089,0.065 0.134,0.098 0.007,-0.005 0.015,-0.011 0.022,-0.016 -0.037,-0.049 -0.071,-0.101 -0.111,-0.147 -0.514,-0.589 -1.066,-1.149 -1.533,-1.773 -0.519,-0.692 -0.981,-1.43 -1.429,-2.172 -0.363,-0.6 -0.68,-1.23 -0.995,-1.858 -0.189,-0.377 -0.331,-0.777 -0.503,-1.163 -0.135,-0.303 -0.308,-0.59 -0.421,-0.9 -0.279,-0.771 -0.543,-1.548 -0.794,-2.328 -0.18,-0.559 -0.337,-1.127 -0.489,-1.694 -0.057,-0.211 -0.075,-0.433 -0.103,-0.651 -0.006,-0.047 0.023,-0.097 0.091,-0.171 0.065,0.09 0.155,0.171 0.193,0.272 0.28,0.749 0.534,1.509 0.828,2.254 0.371,0.94 0.753,1.878 1.168,2.8 0.282,0.626 0.629,1.222 0.948,1.831 0.148,0.283 0.289,0.57 0.451,0.844 0.234,0.396 0.477,0.787 0.729,1.171 0.213,0.322 0.444,0.632 0.67,0.945 0.053,0.074 0.117,0.139 0.205,0.241 0.004,-0.078 0.018,-0.115 0.005,-0.136 -0.411,-0.677 -0.846,-1.342 -1.231,-2.034 -0.38,-0.681 -0.718,-1.384 -0.959,-2.133 -0.228,-0.712 -0.494,-1.412 -0.752,-2.114 -0.431,-1.173 -0.815,-2.358 -0.944,-3.609 -0.009,-0.09 0.017,-0.182 0.022,-0.234 0.285,0.901 0.554,1.838 0.88,2.754 0.225,0.634 0.534,1.237 0.796,1.858 0.39,0.921 0.918,1.764 1.471,2.592 0.474,0.71 0.931,1.433 1.448,2.11 0.583,0.762 1.214,1.487 1.844,2.211 0.429,0.493 0.892,0.957 1.341,1.433 0.041,0.044 0.079,0.111 0.128,0.12 0.067,0.013 0.143,-0.018 0.215,-0.031 -0.02,-0.05 -0.029,-0.111 -0.062,-0.15 -0.588,-0.69 -1.204,-1.358 -1.762,-2.07 -0.54,-0.689 -1.043,-1.409 -1.522,-2.141 -0.391,-0.597 -0.748,-1.219 -1.075,-1.853 -0.363,-0.705 -0.72,-1.42 -0.993,-2.163 -0.186,-0.509 -0.357,-1.044 -0.345,-1.608 0.004,-0.174 -0.034,-0.35 -0.052,-0.524 0.016,-0.004 0.032,-0.007 0.048,-0.011 0.148,0.322 0.296,0.645 0.445,0.967 0.467,1.01 0.92,2.028 1.41,3.028 0.246,0.502 0.576,0.961 0.839,1.456 0.236,0.445 0.543,0.831 0.867,1.212 0.192,0.226 0.35,0.48 0.533,0.714 0.445,0.567 0.878,1.145 1.348,1.691 0.4,0.464 0.851,0.884 1.269,1.333 0.753,0.811 1.591,1.527 2.495,2.157 0.888,0.618 1.813,1.182 2.721,1.77 1.046,0.676 2.22,1.078 3.355,1.566 0.884,0.38 1.777,0.733 2.708,0.984 0.115,0.031 0.227,0.083 0.329,0.145 0.057,0.035 0.09,0.111 0.133,0.168 -0.01,0.023 -0.02,0.046 -0.031,0.068 -0.122,0 -0.246,-0.006 -0.367,0.004 -0.052,0.004 -0.1,0.043 -0.149,0.066 0.026,0.042 0.044,0.103 0.082,0.121 0.099,0.048 0.204,0.086 0.311,0.11 0.612,0.136 1.223,0.287 1.84,0.394 0.386,0.066 0.784,0.052 1.174,0.099 0.402,0.047 0.799,0.151 1.202,0.181 0.501,0.037 1.006,0.027 1.509,0.03 0.346,0.003 0.691,-10e-4 1.036,-0.011 0.159,-0.005 0.319,-0.024 0.477,-0.047 0.578,-0.086 1.153,-0.196 1.733,-0.261 0.725,-0.081 1.409,-0.346 2.125,-0.449 0.816,-0.118 1.56,-0.45 2.331,-0.702 0.621,-0.204 1.24,-0.417 1.85,-0.651 0.334,-0.129 0.647,-0.312 0.97,-0.469 0.761,-0.371 1.526,-0.735 2.283,-1.114 0.291,-0.146 0.563,-0.329 0.844,-0.494 0.052,-0.03 0.105,-0.059 0.157,-0.089 0.339,-0.195 0.691,-0.372 1.012,-0.592 0.366,-0.251 0.713,-0.533 1.054,-0.817 0.589,-0.491 1.187,-0.973 1.745,-1.497 0.967,-0.909 1.916,-1.839 2.855,-2.777 0.348,-0.348 0.647,-0.744 0.986,-1.111 -0.055,0.105 -0.106,0.213 -0.166,0.315 -0.424,0.711 -0.836,1.429 -1.281,2.126 -0.185,0.29 -0.434,0.54 -0.666,0.799 -0.479,0.535 -0.954,1.076 -1.454,1.592 -0.371,0.382 -0.782,0.725 -1.169,1.092 -0.233,0.22 -0.44,0.468 -0.682,0.676 -0.353,0.304 -0.728,0.582 -1.092,0.874 -0.707,0.571 -1.49,1.02 -2.317,1.387 -0.407,0.181 -0.844,0.293 -1.267,0.438 -0.061,0.021 -0.126,0.043 -0.175,0.083 -0.025,0.02 -0.03,0.083 -0.021,0.121 0.005,0.018 0.064,0.037 0.096,0.033 0.457,-0.054 0.923,-0.071 1.367,-0.177 0.602,-0.144 1.196,-0.333 1.777,-0.546 0.495,-0.18 0.978,-0.401 1.448,-0.64 0.462,-0.234 0.903,-0.51 1.35,-0.774 0.286,-0.169 0.565,-0.35 0.848,-0.525 0.011,0.014 0.022,0.028 0.033,0.042 -0.165,0.138 -0.322,0.29 -0.498,0.412 -0.47,0.325 -0.935,0.66 -1.426,0.949 -0.469,0.275 -0.969,0.499 -1.456,0.743 -0.029,0.015 -0.076,0.008 -0.095,0.028 -0.071,0.078 -0.134,0.163 -0.2,0.245 0.093,-10e-4 0.192,0.019 0.278,-0.006 1.272,-0.369 2.455,-0.936 3.588,-1.615 0.997,-0.597 1.95,-1.255 2.816,-2.032 0.273,-0.245 0.518,-0.521 0.772,-0.787 0.766,-0.798 1.371,-1.714 1.95,-2.65 C 1.917,35.008 2.327,34.407 2.71,33.789 2.934,33.427 3.124,33.044 3.338,32.675 3.472,32.444 3.652,32.235 3.762,31.994 4.013,31.448 4.251,30.896 4.46,30.333 4.647,29.826 4.784,29.301 4.951,28.787 5.165,28.128 5.399,27.475 5.601,26.812 5.744,26.341 5.855,25.86 5.967,25.381 6.084,24.874 6.139,24.348 6.306,23.858 6.514,23.246 6.523,22.61 6.631,21.988 6.734,21.39 6.795,20.784 6.861,20.18 6.927,19.57 6.977,18.958 7.033,18.347 7.058,18.063 7.087,17.778 7.102,17.493 7.135,16.903 7.168,16.312 7.186,15.721 7.198,15.328 7.181,14.934 7.184,14.54 7.186,14.214 7.221,13.887 7.203,13.562 7.178,13.12 7.118,12.68 7.072,12.239 7.03,11.828 7.017,11.411 6.935,11.009 6.739,10.044 6.537,9.08 6.287,8.128 6.089,7.378 5.817,6.648 5.578,5.909 5.464,5.554 5.385,5.181 5.231,4.844 4.951,4.235 4.82,3.573 4.479,2.984 4.185,2.476 3.99,1.912 3.731,1.383 3.539,0.992 3.319,0.615 3.106,0.235 2.939,-0.061 2.766,-0.353 2.591,-0.643 2.508,-0.78 2.414,-0.91 2.323,-1.042 1.931,-1.604 1.547,-2.172 1.142,-2.725 0.906,-3.047 0.633,-3.342 0.382,-3.654 0.095,-4.011 -0.18,-4.378 -0.473,-4.731 -0.643,-4.936 -0.834,-5.124 -1.023,-5.313 -1.56,-5.85 -2.107,-6.377 -2.639,-6.919 -3.238,-7.528 -3.904,-8.054 -4.593,-8.556 -5.137,-8.952 -5.655,-9.387 -6.22,-9.749 c -0.792,-0.508 -1.603,-0.986 -2.47,-1.364 -0.66,-0.288 -1.295,-0.632 -1.955,-0.921 -0.556,-0.244 -1.125,-0.464 -1.7,-0.658 -0.815,-0.274 -1.639,-0.521 -2.464,-0.764 -0.225,-0.065 -0.466,-0.073 -0.7,-0.107 -0.005,0.024 -0.01,0.048 -0.015,0.071 0.205,0.055 0.414,0.099 0.615,0.167 0.427,0.145 0.855,0.288 1.273,0.457 0.908,0.368 1.805,0.76 2.714,1.125 0.84,0.337 1.622,0.785 2.385,1.263 0.369,0.232 0.686,0.546 1.025,0.824 0.017,0.014 0.022,0.042 0.044,0.088 -0.451,-0.209 -0.873,-0.414 -1.302,-0.601 -0.36,-0.157 -0.725,-0.3 -1.094,-0.435 -0.847,-0.311 -1.695,-0.621 -2.548,-0.914 -0.416,-0.143 -0.843,-0.256 -1.269,-0.366 -0.101,-0.026 -0.221,0.009 -0.329,0.031 -0.028,0.006 -0.063,0.074 -0.059,0.108 0.004,0.03 0.057,0.069 0.093,0.077 0.764,0.157 1.48,0.443 2.179,0.782 0.42,0.205 0.862,0.367 1.267,0.597 0.943,0.536 1.897,1.056 2.752,1.735 0.297,0.236 0.639,0.417 0.928,0.661 0.4,0.338 0.852,0.635 1.106,1.18 -0.51,-0.226 -0.981,-0.434 -1.453,-0.642 -0.042,-0.019 -0.088,-0.044 -0.132,-0.043 -0.046,0.002 -0.112,0.019 -0.132,0.052 -0.016,0.027 0.007,0.105 0.038,0.13 0.128,0.103 0.267,0.193 0.4,0.289 0.308,0.222 0.627,0.431 0.921,0.67 0.387,0.316 0.746,0.666 1.132,0.983 0.313,0.256 0.629,0.503 0.909,0.8 0.276,0.294 0.602,0.541 0.896,0.82 0.39,0.371 0.776,0.748 1.153,1.134 0.295,0.303 0.588,0.612 0.855,0.94 0.411,0.506 0.799,1.03 1.197,1.546 C 0.027,-0.023 0.013,-0.011 0,0"
             style="fill:#a0d856;fill-opacity:1;fill-rule:nonzero;stroke:none"
             id="path3722"
             inkscape:connector-curvature="0" />
        </g>
      </g>
    </g>
  </g>
</svg>
