<?xml version="1.0" encoding="UTF-8" standalone="no"?>
<svg xmlns="http://www.w3.org/2000/svg" viewBox="0 0 596.24351 114.66516" id="svg3560">
  <g id="layer1" transform="translate(689.40747,-177.88677)">
    <g id="g3465" transform="matrix(1.25,0,0,-1.25,-910.10696,620.6033)">
      <text transform="matrix(1,0,0,-1,415.9758,271.4999)" style="font-variant:normal;font-weight:normal;font-stretch:normal;font-size:100px;font-family:'GothamRounded-Book';writing-mode:lr-tb;fill:#40bea2;fill-opacity:1;fill-rule:nonzero;stroke:none" id="text3495">
        <tspan x="-245.02756 -181.83774" y="0" id="tspan3499">SH</tspan>
        <tspan x="0 64.189827 140.41524 167.59561" y="0" id="tspan3497">SHIN</tspan>
      </text>
      <g id="g3501">
        <g id="g3503" clip-path="url(#clipPath3505)">
          <g id="g3509" transform="translate(358.6772,272.2492)">
            <path d="m 0,0 c -0.491,0.261 -1.041,0.297 -1.567,0.43 -1.013,0.255 -1.998,0.617 -3.012,0.869 -1.216,0.302 -2.354,0.809 -3.512,1.262 -0.617,0.241 -1.21,0.547 -1.808,0.835 -0.109,0.053 -0.189,0.164 -0.282,0.249 0.013,0.032 0.026,0.063 0.038,0.095 0.106,-0.021 0.215,-0.03 0.315,-0.066 0.35,-0.123 0.697,-0.257 1.047,-0.382 0.05,-0.019 0.11,-0.011 0.234,-0.021 -0.08,0.099 -0.113,0.176 -0.172,0.207 -0.472,0.252 -0.949,0.497 -1.426,0.741 -0.648,0.331 -1.304,0.647 -1.944,0.993 -0.8,0.433 -1.602,0.865 -2.377,1.341 -0.855,0.526 -1.68,1.1 -2.517,1.654 -0.173,0.115 -0.347,0.228 -0.509,0.356 -0.074,0.059 -0.13,0.147 -0.171,0.233 -0.015,0.033 0.026,0.111 0.063,0.141 0.025,0.021 0.107,0.012 0.132,-0.014 0.615,-0.643 1.437,-0.973 2.177,-1.424 0.726,-0.443 1.478,-0.848 2.233,-1.24 0.272,-0.141 0.588,-0.196 0.913,-0.244 -0.029,0.042 -0.048,0.099 -0.088,0.125 -0.351,0.232 -0.705,0.461 -1.061,0.686 -0.925,0.584 -1.862,1.149 -2.774,1.752 -0.919,0.609 -1.823,1.243 -2.716,1.89 -0.386,0.279 -0.707,0.638 -0.922,1.085 0.696,-0.569 1.412,-1.099 2.329,-1.29 -0.115,0.101 -0.226,0.205 -0.345,0.302 -0.438,0.355 -0.888,0.698 -1.316,1.065 -0.535,0.459 -1.06,0.931 -1.575,1.412 -0.24,0.225 -0.442,0.49 -0.673,0.726 -0.109,0.111 -0.109,0.228 -0.025,0.323 0.027,0.03 0.178,-0.019 0.25,-0.065 1.098,-0.712 2.182,-1.446 3.291,-2.139 0.531,-0.332 1.112,-0.584 1.664,-0.885 0.635,-0.347 1.259,-0.714 1.893,-1.063 0.927,-0.51 1.855,-1.018 2.788,-1.516 0.437,-0.234 0.885,-0.45 1.332,-0.665 0.428,-0.205 0.862,-0.398 1.293,-0.597 0.014,0.027 0.029,0.054 0.043,0.081 -0.156,0.092 -0.313,0.182 -0.468,0.276 -0.9,0.546 -1.81,1.074 -2.694,1.643 -0.807,0.52 -1.61,1.051 -2.371,1.634 -0.893,0.685 -1.745,1.425 -2.599,2.158 -0.191,0.164 -0.297,0.409 -0.209,0.724 0.081,-0.042 0.16,-0.074 0.228,-0.122 0.274,-0.192 0.54,-0.397 0.819,-0.582 0.546,-0.362 1.088,-0.731 1.65,-1.067 0.716,-0.427 1.439,-0.845 2.179,-1.227 0.788,-0.406 1.599,-0.769 2.402,-1.145 0.584,-0.273 1.175,-0.533 1.757,-0.811 0.087,-0.042 0.165,-0.136 0.212,-0.224 0.173,-0.323 0.331,-0.654 0.512,-0.973 -0.175,0.351 -0.35,0.702 -0.549,1.102 2.077,-0.717 4.096,-1.46 6.196,-1.934 0.01,0.029 0.02,0.059 0.03,0.088 -0.158,0.055 -0.317,0.102 -0.472,0.164 -0.815,0.327 -1.627,0.659 -2.443,0.985 -0.763,0.305 -1.528,0.604 -2.293,0.906 -0.393,0.155 -0.786,0.309 -1.177,0.468 -0.187,0.077 -0.359,0.187 -0.537,0.278 -1.35,0.691 -2.698,1.388 -4.017,2.136 -1.057,0.6 -2.117,1.21 -3.025,2.038 -0.305,0.278 -0.616,0.55 -0.908,0.841 -0.06,0.06 -0.095,0.226 -0.055,0.288 0.095,0.149 0.207,0.054 0.328,-0.023 0.662,-0.421 1.326,-0.84 2.003,-1.237 0.608,-0.357 1.22,-0.712 1.854,-1.018 0.873,-0.42 1.758,-0.817 2.655,-1.181 0.807,-0.328 1.631,-0.616 2.457,-0.888 0.495,-0.163 1.009,-0.272 1.518,-0.386 0.154,-0.035 0.322,-0.006 0.484,-0.007 0.01,0.033 0.02,0.066 0.03,0.099 -0.266,0.121 -0.529,0.248 -0.799,0.359 -0.879,0.364 -1.783,0.676 -2.634,1.095 -1.253,0.617 -2.464,1.321 -3.704,1.965 -0.577,0.3 -1.014,0.771 -1.52,1.156 -0.448,0.34 -0.869,0.72 -1.277,1.108 -0.188,0.179 -0.318,0.419 -0.474,0.632 0.025,0.024 0.05,0.048 0.075,0.073 0.262,-0.181 0.516,-0.375 0.787,-0.541 0.683,-0.421 1.367,-0.84 2.063,-1.239 0.461,-0.263 0.94,-0.494 1.415,-0.73 0.927,-0.461 1.855,-0.92 2.839,-1.25 0.684,-0.229 1.36,-0.481 2.047,-0.698 0.59,-0.185 1.192,-0.335 1.788,-0.501 0.414,-0.115 0.825,-0.24 1.241,-0.347 0.583,-0.15 1.165,-0.306 1.755,-0.426 0.793,-0.161 1.59,-0.305 2.39,-0.429 0.605,-0.094 1.215,-0.18 1.825,-0.207 0.932,-0.041 1.865,-0.038 2.798,-0.035 0.827,0.002 1.655,0.018 2.482,0.049 0.61,0.023 1.224,0.051 1.829,0.127 0.777,0.098 1.551,0.228 2.32,0.379 1.066,0.209 2.097,0.535 3.084,0.997 0.044,0.021 0.093,0.053 0.138,0.052 0.702,-0.025 1.296,0.322 1.904,0.581 0.938,0.4 1.859,0.844 2.764,1.315 0.52,0.27 1.002,0.617 1.485,0.952 0.633,0.439 1.261,0.886 1.869,1.358 0.451,0.349 0.869,0.74 1.298,1.117 0.446,0.391 0.905,0.771 1.327,1.187 0.511,0.504 0.991,1.04 1.481,1.566 0.241,0.258 0.486,0.513 0.706,0.789 0.236,0.296 0.44,0.617 0.666,0.921 0.126,0.171 0.273,0.325 0.401,0.494 0.133,0.174 0.26,0.353 0.377,0.538 0.483,0.759 0.974,1.513 1.435,2.286 0.171,0.287 0.265,0.619 0.396,0.93 0.104,0.243 0.212,0.485 0.316,0.729 0.189,0.442 0.309,0.932 0.583,1.313 0.279,0.388 0.36,0.814 0.456,1.238 0.156,0.691 0.269,1.394 0.358,2.097 0.091,0.713 0.143,1.432 0.189,2.15 0.036,0.574 0.049,1.15 0.052,1.725 0.003,0.593 -0.012,1.186 -0.032,1.779 -0.016,0.492 -0.037,0.985 -0.083,1.476 -0.03,0.327 -0.099,0.652 -0.167,0.974 -0.167,0.787 -0.321,1.577 -0.521,2.355 -0.179,0.694 -0.382,1.386 -0.628,2.059 -0.207,0.564 -0.481,1.106 -0.744,1.649 -0.274,0.565 -0.535,1.142 -0.868,1.672 -0.377,0.601 -0.818,1.164 -1.253,1.727 -0.215,0.279 -0.511,0.499 -0.704,0.791 -0.11,0.166 -0.157,0.375 -0.314,0.528 -0.278,0.271 -0.565,0.539 -0.806,0.842 -0.45,0.562 -1.008,1.005 -1.553,1.46 -0.63,0.526 -1.294,1.012 -1.942,1.516 -0.315,0.244 -0.623,0.499 -0.945,0.733 -0.428,0.312 -0.873,0.602 -1.3,0.915 -0.157,0.115 -0.267,0.297 -0.429,0.4 -0.383,0.245 -0.783,0.462 -1.178,0.687 -0.489,0.28 -0.968,0.579 -1.471,0.829 -0.465,0.231 -0.952,0.422 -1.439,0.603 -0.38,0.142 -0.776,0.239 -1.163,0.359 -0.652,0.202 -1.294,0.447 -1.957,0.599 -0.893,0.205 -1.802,0.342 -2.706,0.501 -0.366,0.064 -0.738,0.094 -1.103,0.165 -1.036,0.203 -2.077,0.21 -3.123,0.123 C 5.513,59.751 4.176,59.704 2.868,59.409 2.497,59.325 2.126,59.237 1.754,59.155 1.547,59.109 1.521,59.138 1.545,59.379 c 1.328,0.269 2.658,0.555 3.996,0.801 0.553,0.102 1.121,0.125 1.682,0.175 0.513,0.047 1.028,0.12 1.541,0.115 0.752,-0.008 1.506,-0.057 2.256,-0.123 0.609,-0.053 1.216,-0.143 1.82,-0.241 0.985,-0.16 1.946,-0.419 2.879,-0.777 0.479,-0.184 0.959,-0.369 1.434,-0.564 0.696,-0.287 1.398,-0.563 2.08,-0.881 0.562,-0.263 1.097,-0.581 1.646,-0.871 0.374,-0.198 0.754,-0.381 1.124,-0.585 0.253,-0.14 0.497,-0.3 0.738,-0.46 0.538,-0.357 1.096,-0.69 1.603,-1.088 0.95,-0.747 1.871,-1.532 2.802,-2.303 0.807,-0.668 1.553,-1.397 2.233,-2.197 0.354,-0.417 0.736,-0.811 1.106,-1.215 0.025,-0.027 0.057,-0.049 0.127,-0.045 -0.163,0.269 -0.313,0.549 -0.492,0.807 -0.415,0.601 -0.804,1.227 -1.28,1.777 -0.514,0.595 -1.095,1.135 -1.681,1.662 -0.782,0.704 -1.584,1.388 -2.401,2.051 -0.675,0.548 -1.355,1.095 -2.155,1.462 -0.085,0.039 -0.153,0.114 -0.214,0.233 0.072,0 0.158,0.026 0.215,-0.004 0.574,-0.294 1.154,-0.579 1.712,-0.903 0.673,-0.391 1.325,-0.82 1.99,-1.227 0.465,-0.286 0.936,-0.565 1.405,-0.844 0.055,-0.032 0.118,-0.049 0.176,-0.073 0.139,0.188 0.089,0.311 -0.045,0.485 -0.772,0.997 -1.76,1.759 -2.732,2.538 -0.309,0.247 -0.657,0.445 -0.987,0.668 -0.049,0.033 -0.093,0.074 -0.139,0.112 0.013,0.028 0.026,0.057 0.039,0.085 0.128,-0.045 0.27,-0.068 0.381,-0.14 0.521,-0.339 1.022,-0.711 1.551,-1.036 0.824,-0.506 1.52,-1.162 2.244,-1.79 0.447,-0.387 0.966,-0.69 1.458,-1.022 0.053,-0.036 0.147,-0.011 0.221,-0.015 -0.006,0.096 0.023,0.22 -0.026,0.281 -0.202,0.252 -0.42,0.492 -0.647,0.722 -0.251,0.254 -0.521,0.488 -0.776,0.737 -0.044,0.043 -0.056,0.118 -0.082,0.179 0.075,-0.006 0.163,0.012 0.222,-0.022 0.416,-0.24 0.812,-0.517 1.241,-0.728 0.374,-0.183 0.784,-0.295 1.178,-0.438 0.019,0.028 0.039,0.057 0.058,0.086 -0.313,0.283 -0.62,0.571 -0.939,0.846 -0.449,0.388 -0.888,0.794 -1.365,1.144 -1.044,0.766 -2.104,1.51 -3.169,2.246 -0.49,0.338 -0.987,0.675 -1.515,0.947 -0.957,0.494 -1.939,0.941 -2.912,1.404 -0.329,0.156 -0.656,0.322 -0.997,0.448 -0.441,0.163 -0.898,0.28 -1.342,0.434 -0.689,0.24 -1.363,0.525 -2.06,0.735 -0.737,0.222 -1.488,0.404 -2.243,0.558 -0.876,0.177 -1.762,0.307 -2.644,0.453 -0.824,0.136 -1.644,0.303 -2.473,0.388 -0.636,0.066 -1.283,0.025 -1.925,0.031 -0.008,-0.036 -0.016,-0.072 -0.024,-0.108 0.245,-0.101 0.481,-0.248 0.736,-0.294 0.806,-0.145 1.62,-0.25 2.43,-0.374 0.582,-0.089 1.165,-0.178 1.746,-0.277 0.572,-0.098 1.147,-0.187 1.711,-0.32 0.854,-0.201 1.704,-0.424 2.548,-0.661 1.414,-0.397 2.791,-0.909 4.134,-1.497 1.037,-0.455 2.043,-0.988 3.041,-1.526 0.28,-0.151 0.484,-0.444 0.723,-0.671 -0.016,-0.025 -0.031,-0.05 -0.047,-0.075 -0.125,0.047 -0.252,0.089 -0.373,0.142 -0.6,0.264 -1.19,0.553 -1.801,0.79 -0.515,0.2 -1.049,0.36 -1.585,0.498 -0.285,0.074 -0.591,0.081 -0.888,0.084 -0.223,0.002 -0.287,-0.157 -0.145,-0.333 0.123,-0.154 0.267,-0.291 0.389,-0.508 -0.082,0.009 -0.17,0.003 -0.246,0.029 -0.207,0.07 -0.408,0.154 -0.613,0.231 -0.279,0.106 -0.557,0.215 -0.839,0.314 -1.159,0.41 -2.338,0.744 -3.565,0.889 -0.979,0.115 -1.956,0.256 -2.936,0.369 -0.737,0.084 -1.477,0.148 -2.217,0.209 C 8.696,61.386 7.75,61.464 6.803,61.518 6.051,61.562 5.298,61.573 4.546,61.594 3.675,61.619 2.808,61.606 1.945,61.453 1.59,61.39 1.222,61.396 0.86,61.365 0.771,61.358 0.673,61.35 0.597,61.308 0.097,61.032 -0.4,60.75 -0.893,60.461 -0.976,60.413 -1.031,60.319 -1.108,60.257 -1.22,60.166 -1.217,60.072 -1.117,59.988 c 0.125,-0.104 0.269,-0.187 0.392,-0.293 0.058,-0.05 0.135,-0.152 0.117,-0.197 -0.028,-0.072 -0.124,-0.161 -0.197,-0.166 -0.806,-0.063 -1.579,-0.257 -2.338,-0.529 -0.674,-0.24 -1.358,-0.451 -2.036,-0.683 -0.14,-0.048 -0.268,-0.13 -0.404,-0.191 -0.483,-0.219 -0.971,-0.425 -1.447,-0.657 -0.22,-0.108 -0.438,-0.241 -0.621,-0.404 -1.102,-0.981 -2.208,-1.96 -3.284,-2.969 -0.695,-0.651 -1.365,-1.335 -1.778,-2.219 -0.299,-0.638 -0.607,-1.272 -0.895,-1.916 -0.069,-0.154 -0.034,-0.358 -0.113,-0.504 -0.238,-0.437 -0.479,-0.869 -0.587,-1.362 -0.006,-0.026 -0.044,-0.045 -0.124,-0.122 -0.057,0.161 -0.145,0.289 -0.14,0.412 0.021,0.526 0.07,1.051 0.106,1.551 -0.019,-0.045 -0.055,-0.133 -0.096,-0.219 -0.043,-0.09 -0.093,-0.175 -0.136,-0.265 -0.591,-1.234 -0.97,-2.542 -1.264,-3.87 -0.174,-0.789 -0.225,-1.605 -0.332,-2.41 -0.016,-0.12 -0.033,-0.241 -0.065,-0.357 -0.01,-0.036 -0.073,-0.072 -0.116,-0.078 -0.036,-0.005 -0.104,0.023 -0.115,0.052 -0.089,0.235 -0.158,0.478 -0.251,0.711 -0.25,0.625 -0.164,1.29 -0.222,1.936 -0.046,0.515 -0.018,1.047 0.058,1.56 0.12,0.807 0.288,1.609 0.47,2.405 0.236,1.029 0.575,2.024 1.012,2.987 0.305,0.672 0.565,1.366 0.86,2.042 0.17,0.388 0.372,0.761 0.559,1.141 0.027,0.057 0.053,0.114 0.062,0.188 -0.794,-0.435 -1.625,-0.808 -2.248,-1.488 -0.368,-0.402 -0.734,-0.813 -1.049,-1.256 -0.345,-0.484 -0.695,-0.982 -0.926,-1.523 -0.332,-0.781 -0.582,-1.6 -0.824,-2.416 -0.204,-0.69 -0.359,-1.395 -0.515,-2.097 -0.097,-0.437 -0.166,-0.88 -0.227,-1.323 -0.064,-0.473 -0.1,-0.95 -0.156,-1.425 -0.087,-0.749 -0.011,-1.501 -0.04,-2.249 -0.048,-1.259 0.29,-2.448 0.571,-3.649 0.145,-0.62 0.318,-1.235 0.518,-1.839 0.09,-0.27 0.301,-0.497 0.416,-0.761 0.172,-0.395 0.306,-0.806 0.458,-1.21 0.051,-0.136 0.13,-0.266 0.158,-0.407 0.169,-0.855 0.346,-1.712 0.283,-2.59 -0.053,-0.728 -0.185,-1.434 -0.584,-2.078 -0.29,-0.471 -0.477,-1.006 -0.764,-1.479 -0.257,-0.42 -0.549,-0.835 -0.896,-1.18 -0.372,-0.37 -0.798,-0.709 -1.255,-0.964 -0.396,-0.221 -0.862,-0.327 -1.307,-0.449 -1.022,-0.279 -2.04,-0.161 -3.05,0.083 -0.465,0.113 -0.929,0.233 -1.387,0.372 -0.161,0.049 -0.312,0.149 -0.453,0.248 -0.623,0.437 -1.273,0.845 -1.851,1.337 -0.442,0.376 -0.804,0.851 -1.176,1.303 -0.294,0.357 -0.575,0.731 -0.816,1.126 -0.156,0.256 -0.227,0.564 -0.337,0.848 -0.164,0.42 -0.366,0.828 -0.485,1.26 -0.298,1.076 -0.452,2.171 -0.357,3.295 0.105,1.239 0.156,2.483 0.285,3.719 0.071,0.689 0.251,1.367 0.389,2.049 0.125,0.625 0.243,1.252 0.395,1.87 0.164,0.668 0.355,1.329 0.548,1.989 0.345,1.177 0.676,2.359 1.06,3.524 0.33,1.001 0.724,1.981 1.093,2.969 0.255,0.682 0.504,1.366 0.777,2.041 0.258,0.637 0.551,1.259 0.817,1.893 0.529,1.26 1.362,2.331 2.112,3.456 0.336,0.503 0.621,1.04 0.966,1.536 0.331,0.476 0.702,0.923 1.068,1.374 0.627,0.771 1.256,1.541 1.898,2.3 0.277,0.329 0.572,0.647 0.886,0.94 0.796,0.74 1.584,1.492 2.42,2.187 0.924,0.769 1.864,1.523 2.904,2.14 0.72,0.427 1.431,0.87 2.153,1.296 0.081,0.048 0.21,0.007 0.303,0.043 0.262,0.102 0.516,0.225 0.777,0.331 0.064,0.027 0.142,0.019 0.214,0.027 -0.05,-0.06 -0.087,-0.14 -0.15,-0.177 -0.622,-0.368 -1.277,-0.687 -1.862,-1.105 -0.439,-0.313 -0.928,-0.539 -1.353,-0.875 -1.169,-0.925 -2.335,-1.849 -3.412,-2.886 -1.005,-0.969 -1.935,-2.003 -2.816,-3.082 -0.285,-0.349 -0.517,-0.74 -0.774,-1.111 0.016,-0.018 0.033,-0.037 0.049,-0.055 0.06,0.03 0.139,0.044 0.176,0.091 0.493,0.645 1.132,1.137 1.736,1.665 0.936,0.818 1.858,1.654 2.83,2.427 0.841,0.669 1.739,1.269 2.621,1.885 1.231,0.86 2.54,1.58 3.928,2.155 0.37,0.153 0.706,0.388 1.077,0.537 0.743,0.299 1.479,0.615 2.265,0.803 0.505,0.119 0.984,0.342 1.477,0.512 0.493,0.17 0.983,0.35 1.484,0.491 1.124,0.317 2.251,0.627 3.384,0.911 0.562,0.142 1.138,0.236 1.712,0.325 0.908,0.142 1.817,0.289 2.731,0.38 0.575,0.057 1.161,0.034 1.741,0.016 0.661,-0.02 1.327,-0.031 1.979,-0.124 0.844,-0.122 1.678,-0.315 2.513,-0.492 0.212,-0.046 0.412,-0.15 0.618,-0.227 C 10.671,72.757 10.664,72.715 10.657,72.673 10.48,72.658 10.302,72.643 10.124,72.63 9.481,72.582 8.833,72.565 8.195,72.476 7.681,72.405 7.179,72.252 6.674,72.123 6.593,72.103 6.46,72.007 6.467,71.966 6.493,71.817 6.528,71.629 6.632,71.54 c 0.334,-0.285 0.773,-0.216 1.171,-0.265 1.095,-0.138 2.193,-0.249 3.29,-0.371 0.914,-0.102 1.833,-0.172 2.74,-0.317 0.727,-0.115 1.437,-0.328 2.158,-0.485 0.363,-0.08 0.737,-0.111 1.097,-0.201 0.604,-0.149 1.214,-0.29 1.797,-0.501 0.817,-0.296 1.606,-0.668 2.417,-0.981 0.953,-0.369 1.862,-0.816 2.736,-1.35 0.698,-0.427 1.451,-0.763 2.152,-1.185 0.778,-0.468 1.537,-0.972 2.283,-1.49 0.769,-0.532 1.525,-1.085 2.265,-1.657 0.544,-0.42 1.047,-0.892 1.578,-1.329 0.563,-0.465 1.153,-0.898 1.701,-1.379 0.535,-0.47 1.053,-0.963 1.542,-1.481 0.757,-0.802 1.484,-1.632 2.22,-2.454 0.099,-0.111 0.177,-0.241 0.264,-0.362 0.179,-0.251 0.179,-0.261 0.005,-0.563 -0.338,0.386 -0.657,0.785 -1.012,1.148 -0.643,0.657 -1.306,1.293 -1.962,1.936 -0.308,0.302 -0.602,0.62 -0.93,0.898 -0.771,0.653 -1.554,1.293 -2.341,1.926 -0.517,0.415 -1.032,0.835 -1.577,1.209 -1.135,0.779 -2.288,1.531 -3.437,2.289 -1.376,0.91 -2.893,1.555 -4.365,2.281 -0.603,0.298 -1.263,0.481 -1.896,0.72 -0.509,0.193 -1.01,0.41 -1.525,0.583 -0.485,0.162 -0.985,0.279 -1.477,0.421 -0.413,0.12 -0.824,0.25 -1.236,0.373 -0.044,0.013 -0.091,0.017 -0.148,-0.01 0.061,-0.031 0.122,-0.062 0.183,-0.094 -0.002,-0.011 -0.003,-0.022 -0.005,-0.033 -0.075,0.013 -0.152,0.023 -0.226,0.042 -0.939,0.245 -1.868,0.548 -2.82,0.722 -1.058,0.192 -2.134,0.297 -3.207,0.384 C 9.198,70.035 8.323,70.038 7.45,70.04 6.926,70.042 6.402,69.977 5.878,69.955 5.466,69.937 5.051,69.971 4.643,69.924 3.632,69.807 2.622,69.67 1.615,69.517 0.893,69.407 0.176,69.266 -0.54,69.121 -0.806,69.067 -1.063,68.965 -1.321,68.875 -1.375,68.856 -1.416,68.796 -1.46,68.679 c 0.137,-0.023 0.276,-0.078 0.409,-0.064 0.989,0.104 1.975,0.243 2.965,0.329 1.252,0.108 2.506,0.204 3.761,0.253 0.852,0.033 1.707,-0.022 2.561,-0.039 0.397,-0.008 0.794,-0.005 1.189,-0.033 0.57,-0.041 1.139,-0.094 1.706,-0.162 0.476,-0.058 0.948,-0.143 1.422,-0.22 0.111,-0.018 0.219,-0.054 0.381,-0.095 C 12.85,68.6 12.817,68.564 12.787,68.567 11.805,68.648 10.825,68.763 9.842,68.809 8.874,68.853 7.905,68.839 6.939,68.691 6.021,68.551 5.095,68.458 4.171,68.356 2.628,68.185 1.098,67.955 -0.364,67.405 c -0.105,-0.039 -0.194,-0.119 -0.248,-0.154 1.159,0.183 2.35,0.403 3.55,0.549 0.829,0.1 1.671,0.092 2.506,0.144 1.241,0.077 2.471,-0.042 3.698,-0.198 1.052,-0.134 2.109,-0.241 3.149,-0.441 1.169,-0.225 2.326,-0.525 3.48,-0.824 0.786,-0.204 1.558,-0.462 2.336,-0.697 0.072,-0.021 0.168,-0.027 0.205,-0.076 0.052,-0.067 0.059,-0.169 0.085,-0.256 -0.067,-0.005 -0.139,-0.029 -0.202,-0.014 -1.093,0.271 -2.176,0.585 -3.278,0.811 -1.065,0.219 -2.145,0.379 -3.224,0.506 -0.88,0.103 -1.77,0.156 -2.655,0.168 C 8.052,66.936 7.059,66.936 6.082,66.828 5.413,66.753 4.724,66.646 4.103,66.319 3.911,66.219 3.695,66.164 3.491,66.088 l 0.015,-0.06 c 0.44,0.014 0.881,0.028 1.321,0.041 1.383,0.04 2.766,0.102 4.149,0.111 0.694,0.005 1.388,-0.108 2.083,-0.126 0.626,-0.016 1.226,-0.143 1.828,-0.291 0.358,-0.089 0.728,-0.124 1.09,-0.198 0.877,-0.18 1.76,-0.341 2.628,-0.561 0.737,-0.188 1.454,-0.456 2.185,-0.672 1.319,-0.388 2.579,-0.923 3.78,-1.579 1.18,-0.644 2.32,-1.359 3.477,-2.044 1.332,-0.788 2.429,-1.87 3.6,-2.861 0.914,-0.773 1.801,-1.57 2.596,-2.466 0.098,-0.11 0.219,-0.206 0.344,-0.285 0.071,-0.044 0.173,-0.038 0.261,-0.055 0.019,0.024 0.039,0.048 0.058,0.073 -0.068,0.136 -0.143,0.269 -0.2,0.41 -0.024,0.059 -0.007,0.134 -0.009,0.202 0.062,-0.006 0.139,0.008 0.181,-0.024 0.107,-0.084 0.208,-0.179 0.294,-0.285 0.491,-0.605 0.996,-1.2 1.458,-1.828 0.288,-0.391 0.493,-0.842 0.761,-1.25 0.276,-0.421 0.611,-0.805 0.868,-1.236 0.319,-0.537 0.587,-1.103 0.87,-1.661 0.194,-0.382 0.381,-0.769 0.561,-1.158 0.083,-0.18 0.151,-0.367 0.212,-0.556 0.225,-0.69 0.422,-1.391 0.671,-2.072 0.312,-0.851 0.396,-1.758 0.678,-2.611 0.322,-0.972 0.365,-1.984 0.512,-2.981 0.118,-0.803 0.224,-1.609 0.302,-2.417 0.042,-0.443 0.012,-0.892 0.016,-1.339 0.01,-1.052 0.029,-2.104 0.027,-3.156 -10e-4,-0.404 -0.053,-0.808 -0.081,-1.212 -0.005,-0.075 -0.007,-0.15 -0.011,-0.224 -0.03,-0.485 -0.031,-0.974 -0.098,-1.453 -0.076,-0.546 -0.197,-1.088 -0.324,-1.625 -0.22,-0.927 -0.424,-1.859 -0.698,-2.77 -0.474,-1.579 -0.982,-3.15 -1.504,-4.714 -0.194,-0.579 -0.468,-1.131 -0.688,-1.712 0.086,0.12 0.178,0.236 0.257,0.36 0.556,0.865 1.125,1.721 1.654,2.602 0.22,0.366 0.36,0.783 0.519,1.183 0.33,0.83 0.668,1.658 0.964,2.5 0.22,0.624 0.373,1.271 0.566,1.905 0.116,0.38 0.276,0.748 0.374,1.132 0.142,0.561 0.243,1.133 0.367,1.699 0.242,1.103 0.308,2.223 0.257,3.345 -0.025,0.553 -0.142,1.101 -0.215,1.651 -0.011,0.08 -0.023,0.165 -0.006,0.241 0.009,0.04 0.076,0.08 0.123,0.09 0.023,0.005 0.077,-0.05 0.09,-0.087 0.194,-0.538 0.433,-1.066 0.562,-1.619 0.174,-0.749 0.292,-1.514 0.378,-2.278 0.074,-0.65 0.095,-1.309 0.091,-1.964 -0.005,-0.644 -0.066,-1.288 -0.112,-1.931 -0.029,-0.411 -0.076,-0.822 -0.115,-1.233 l 0.066,-0.015 c 0.062,0.261 0.144,0.519 0.182,0.784 0.101,0.702 0.215,1.404 0.264,2.111 0.047,0.674 0.018,1.354 0.02,2.031 0,0.04 -0.034,0.088 -0.022,0.121 0.047,0.122 0.107,0.239 0.161,0.358 0.051,-0.104 0.128,-0.203 0.148,-0.313 0.294,-1.619 0.321,-3.248 0.194,-4.884 -0.112,-1.44 -0.315,-2.864 -0.699,-4.257 C 42.651,22.535 42.48,22.11 42.326,21.68 41.862,20.386 41.179,19.206 40.46,18.043 39.985,17.275 39.544,16.486 39.068,15.717 38.79,15.267 38.47,14.844 38.179,14.402 37.996,14.124 37.863,13.809 37.657,13.552 37.189,12.971 36.707,12.4 36.197,11.856 35.737,11.367 35.229,10.924 34.75,10.453 34.136,9.85 33.54,9.227 32.914,8.635 32.47,8.215 31.997,7.825 31.526,7.435 31.028,7.024 30.473,6.671 30.022,6.215 29.456,5.643 28.754,5.282 28.122,4.816 27.515,4.37 26.874,3.966 26.239,3.559 25.598,3.147 24.945,2.752 24.296,2.351 23.995,2.165 23.694,1.976 23.386,1.801 22.748,1.437 22.11,1.072 21.462,0.725 21.032,0.493 20.584,0.295 20.148,0.073 19.787,-0.11 19.442,-0.33 19.071,-0.49 18.566,-0.708 18.043,-0.886 17.528,-1.079 17.048,-1.259 16.577,-1.476 16.084,-1.608 14.903,-1.925 13.718,-2.235 12.522,-2.484 11.579,-2.68 10.616,-2.781 9.662,-2.926 9.203,-2.996 8.746,-3.115 8.285,-3.13 7.454,-3.157 6.644,-3.379 5.8,-3.326 5.073,-3.281 4.337,-3.376 3.605,-3.381 3.065,-3.385 2.523,-3.349 1.983,-3.323 1.562,-3.302 1.141,-3.271 0.721,-3.237 0.523,-3.221 0.326,-3.189 0.13,-3.16 c -0.843,0.124 -1.688,0.236 -2.527,0.38 -0.489,0.084 -0.968,0.224 -1.454,0.33 -0.556,0.121 -1.117,0.223 -1.671,0.353 -0.322,0.076 -0.637,0.183 -0.952,0.289 -0.894,0.3 -1.784,0.615 -2.682,0.907 -1.009,0.328 -1.963,0.777 -2.902,1.265 -0.742,0.386 -1.513,0.72 -2.229,1.148 -1.003,0.598 -1.984,1.235 -2.885,1.989 -0.687,0.574 -1.422,1.09 -2.109,1.664 -0.579,0.483 -1.139,0.993 -1.673,1.525 -0.757,0.754 -1.488,1.533 -2.215,2.316 -0.198,0.213 -0.34,0.478 -0.507,0.719 0.023,0.018 0.047,0.037 0.071,0.056 0.174,-0.198 0.339,-0.406 0.526,-0.591 0.397,-0.395 0.794,-0.792 1.214,-1.162 0.911,-0.806 1.845,-1.586 2.754,-2.394 0.841,-0.748 1.772,-1.369 2.727,-1.951 0.462,-0.282 0.987,-0.461 1.484,-0.684 0.025,-0.011 0.059,0 0.123,10e-4 -0.482,0.385 -0.944,0.74 -1.391,1.114 -0.373,0.313 -0.735,0.64 -1.089,0.974 -0.815,0.77 -1.63,1.541 -2.429,2.327 -0.39,0.383 -0.752,0.795 -1.11,1.208 -0.085,0.098 -0.113,0.25 -0.148,0.383 -0.009,0.034 0.046,0.111 0.087,0.125 0.036,0.013 0.108,-0.024 0.137,-0.061 0.598,-0.762 1.313,-1.4 2.078,-1.988 0.46,-0.354 0.885,-0.756 1.365,-1.078 1.119,-0.752 2.226,-1.525 3.455,-2.098 0.427,-0.2 0.817,-0.479 1.249,-0.665 0.598,-0.258 1.178,-0.595 1.926,-0.576 -0.534,0.442 -1.027,0.85 -1.52,1.259 -0.044,0.037 -0.098,0.074 -0.12,0.124 -0.025,0.052 -0.041,0.134 -0.016,0.175 0.021,0.033 0.121,0.05 0.165,0.03 0.186,-0.086 0.363,-0.19 0.544,-0.285 0.417,-0.219 0.826,-0.458 1.255,-0.652 0.566,-0.255 1.154,-0.46 1.721,-0.714 0.458,-0.206 0.907,-0.42 1.392,-0.567 0.48,-0.144 0.936,-0.37 1.408,-0.541 0.63,-0.229 1.263,-0.449 1.901,-0.654 0.501,-0.16 1.006,-0.314 1.519,-0.429 0.79,-0.177 1.588,-0.318 2.383,-0.474 C -0.01,-0.042 -0.005,-0.021 0,0" style="fill:#40bea2;fill-opacity:1;fill-rule:nonzero;stroke:none" id="path3511"/>
          </g>
          <g id="g3513" transform="translate(400.2827,282.8361)">
            <path d="m 0,0 c -0.548,-0.391 -0.884,-0.967 -1.312,-1.465 -0.823,-0.96 -1.748,-1.832 -2.567,-2.793 -0.985,-1.155 -2.149,-2.113 -3.265,-3.123 -0.595,-0.539 -1.245,-1.016 -1.881,-1.507 -0.116,-0.09 -0.28,-0.117 -0.422,-0.172 -0.027,0.031 -0.055,0.062 -0.082,0.093 0.08,0.103 0.149,0.216 0.241,0.306 0.323,0.312 0.655,0.615 0.98,0.926 0.047,0.046 0.071,0.115 0.148,0.243 -0.15,-0.033 -0.252,-0.027 -0.317,-0.074 -0.528,-0.376 -1.05,-0.76 -1.572,-1.145 -0.709,-0.523 -1.406,-1.063 -2.126,-1.569 -0.901,-0.633 -1.803,-1.268 -2.736,-1.85 -1.032,-0.643 -2.099,-1.226 -3.152,-1.834 -0.217,-0.125 -0.434,-0.253 -0.66,-0.359 -0.103,-0.048 -0.23,-0.062 -0.345,-0.059 -0.043,10e-4 -0.105,0.087 -0.118,0.144 -0.009,0.038 0.044,0.123 0.086,0.136 1.029,0.318 1.83,1.031 2.718,1.588 0.873,0.548 1.717,1.143 2.55,1.75 0.299,0.218 0.529,0.531 0.757,0.857 -0.061,-0.009 -0.133,10e-4 -0.183,-0.028 -0.441,-0.255 -0.88,-0.515 -1.317,-0.779 -1.131,-0.687 -2.249,-1.397 -3.395,-2.058 -1.156,-0.668 -2.331,-1.304 -3.514,-1.922 -0.511,-0.268 -1.073,-0.422 -1.674,-0.413 0.993,0.446 1.954,0.936 2.656,1.827 -0.171,-0.07 -0.345,-0.135 -0.513,-0.211 -0.622,-0.283 -1.236,-0.585 -1.865,-0.85 -0.787,-0.332 -1.581,-0.646 -2.38,-0.944 -0.373,-0.139 -0.77,-0.214 -1.15,-0.337 -0.18,-0.058 -0.306,0.005 -0.363,0.147 -0.018,0.046 0.116,0.183 0.205,0.236 1.365,0.805 2.745,1.583 4.095,2.41 0.647,0.396 1.233,0.889 1.857,1.324 0.719,0.5 1.453,0.979 2.173,1.477 1.054,0.728 2.105,1.459 3.149,2.201 0.49,0.347 0.965,0.716 1.439,1.085 0.453,0.352 0.897,0.717 1.345,1.077 -0.021,0.03 -0.043,0.061 -0.065,0.091 -0.183,-0.12 -0.366,-0.242 -0.551,-0.359 -1.077,-0.679 -2.141,-1.38 -3.235,-2.03 -0.998,-0.594 -2.008,-1.177 -3.05,-1.686 -1.225,-0.598 -2.486,-1.121 -3.742,-1.65 -0.281,-0.119 -0.603,-0.1 -0.897,0.165 0.09,0.065 0.167,0.133 0.255,0.181 0.356,0.193 0.722,0.371 1.073,0.573 0.687,0.395 1.38,0.783 2.047,1.211 0.849,0.545 1.693,1.102 2.506,1.698 0.866,0.634 1.696,1.316 2.537,1.983 0.612,0.485 1.213,0.984 1.828,1.465 0.092,0.072 0.236,0.106 0.358,0.109 0.443,0.013 0.886,0.005 1.33,0.029 l -1.491,0 c 1.899,1.863 3.795,3.649 5.442,5.667 -0.026,0.027 -0.053,0.054 -0.08,0.08 C -8.388,1.721 -8.526,1.574 -8.676,1.44 -9.47,0.734 -10.27,0.033 -11.063,-0.674 c -0.742,-0.662 -1.479,-1.33 -2.219,-1.995 -0.381,-0.342 -0.76,-0.685 -1.144,-1.023 -0.183,-0.16 -0.396,-0.287 -0.591,-0.431 -1.478,-1.089 -2.96,-2.173 -4.483,-3.197 -1.221,-0.822 -2.454,-1.64 -3.841,-2.176 -0.466,-0.18 -0.929,-0.371 -1.402,-0.53 -0.097,-0.033 -0.296,0.019 -0.341,0.096 -0.11,0.183 0.052,0.253 0.202,0.343 0.814,0.489 1.626,0.982 2.421,1.501 0.715,0.466 1.43,0.937 2.104,1.459 0.927,0.718 1.835,1.464 2.714,2.238 0.79,0.697 1.547,1.434 2.289,2.182 0.444,0.448 0.839,0.946 1.238,1.436 0.12,0.148 0.181,0.345 0.269,0.52 -0.031,0.029 -0.061,0.058 -0.092,0.087 -0.274,-0.224 -0.554,-0.44 -0.82,-0.672 -0.869,-0.755 -1.695,-1.566 -2.609,-2.262 -1.345,-1.024 -2.761,-1.956 -4.129,-2.951 -0.636,-0.464 -1.383,-0.682 -2.073,-1.023 -0.611,-0.301 -1.249,-0.552 -1.89,-0.785 -0.295,-0.107 -0.625,-0.117 -0.94,-0.172 -0.013,0.041 -0.026,0.081 -0.038,0.122 0.337,0.185 0.684,0.356 1.011,0.559 0.824,0.513 1.648,1.028 2.455,1.567 0.534,0.356 1.043,0.751 1.556,1.138 1,0.755 1.997,1.512 2.887,2.4 0.618,0.617 1.256,1.213 1.861,1.841 0.52,0.539 1.007,1.11 1.509,1.666 0.348,0.386 0.705,0.764 1.046,1.157 0.477,0.55 0.961,1.096 1.409,1.67 0.603,0.772 1.19,1.558 1.756,2.358 0.428,0.604 0.851,1.218 1.21,1.865 0.547,0.987 1.048,2 1.549,3.011 0.444,0.898 0.874,1.803 1.287,2.715 0.305,0.674 0.606,1.354 0.85,2.051 0.314,0.895 0.591,1.803 0.843,2.717 0.349,1.268 0.553,2.562 0.585,3.879 0.002,0.06 -0.007,0.13 0.019,0.178 0.406,0.746 0.35,1.578 0.398,2.376 0.074,1.232 0.09,2.47 0.069,3.705 -0.012,0.709 -0.127,1.418 -0.23,2.123 -0.134,0.922 -0.279,1.844 -0.461,2.758 -0.134,0.677 -0.332,1.341 -0.509,2.009 -0.183,0.695 -0.346,1.396 -0.569,2.078 -0.27,0.826 -0.592,1.636 -0.896,2.45 -0.15,0.4 -0.294,0.804 -0.474,1.19 -0.193,0.416 -0.431,0.811 -0.638,1.22 -0.117,0.229 -0.204,0.472 -0.318,0.702 -0.118,0.237 -0.243,0.471 -0.379,0.698 -0.562,0.933 -1.114,1.873 -1.702,2.789 -0.218,0.34 -0.527,0.621 -0.793,0.932 -0.208,0.243 -0.411,0.491 -0.619,0.735 -0.377,0.444 -0.843,0.839 -1.108,1.341 -0.27,0.511 -0.687,0.83 -1.095,1.163 -0.664,0.542 -1.364,1.044 -2.077,1.52 -0.724,0.483 -1.474,0.928 -2.228,1.366 -0.601,0.349 -1.219,0.674 -1.84,0.988 -0.641,0.323 -1.291,0.628 -1.944,0.926 -0.542,0.248 -1.088,0.492 -1.644,0.707 -0.371,0.144 -0.76,0.245 -1.146,0.345 -0.942,0.245 -1.881,0.504 -2.832,0.708 -0.848,0.181 -1.707,0.334 -2.569,0.431 -0.724,0.081 -1.458,0.077 -2.188,0.085 -0.76,0.009 -1.526,0.038 -2.281,-0.037 -0.854,-0.084 -1.702,-0.258 -2.546,-0.424 -0.419,-0.083 -0.818,-0.285 -1.238,-0.336 -0.239,-0.03 -0.491,0.033 -0.741,-0.055 -0.444,-0.155 -0.889,-0.32 -1.348,-0.419 -0.851,-0.183 -1.633,-0.548 -2.42,-0.892 -0.91,-0.399 -1.795,-0.856 -2.691,-1.286 -0.435,-0.209 -0.877,-0.405 -1.305,-0.627 -0.569,-0.296 -1.123,-0.621 -1.693,-0.915 -0.209,-0.107 -0.465,-0.128 -0.665,-0.248 -0.472,-0.283 -0.923,-0.6 -1.381,-0.905 -0.566,-0.379 -1.149,-0.736 -1.692,-1.147 -0.501,-0.379 -0.971,-0.802 -1.43,-1.232 -0.358,-0.335 -0.678,-0.711 -1.017,-1.067 -0.571,-0.597 -1.184,-1.159 -1.706,-1.795 -0.704,-0.857 -1.344,-1.768 -2.003,-2.661 -0.268,-0.362 -0.502,-0.749 -0.776,-1.106 -0.778,-1.012 -1.349,-2.137 -1.819,-3.317 -0.598,-1.499 -1.268,-2.972 -1.655,-4.548 -0.11,-0.448 -0.215,-0.897 -0.327,-1.345 -0.063,-0.249 -0.108,-0.261 -0.357,-0.105 0.427,1.584 0.836,3.179 1.291,4.761 0.188,0.654 0.471,1.281 0.719,1.917 0.227,0.581 0.425,1.178 0.708,1.731 0.415,0.811 0.876,1.601 1.352,2.378 0.386,0.631 0.811,1.24 1.244,1.841 0.706,0.98 1.504,1.882 2.396,2.699 0.459,0.419 0.918,0.839 1.386,1.248 0.686,0.6 1.365,1.211 2.078,1.777 0.587,0.467 1.222,0.875 1.833,1.313 0.415,0.298 0.819,0.612 1.239,0.902 0.289,0.199 0.594,0.376 0.898,0.551 0.677,0.39 1.339,0.815 2.043,1.149 1.323,0.626 2.671,1.199 4.009,1.791 1.16,0.514 2.352,0.928 3.585,1.233 0.643,0.158 1.276,0.359 1.913,0.541 0.044,0.013 0.086,0.035 0.119,0.113 -0.381,-0.03 -0.764,-0.042 -1.14,-0.096 -0.876,-0.126 -1.764,-0.209 -2.617,-0.427 -0.921,-0.236 -1.821,-0.574 -2.707,-0.923 -1.186,-0.467 -2.36,-0.967 -3.52,-1.494 -0.957,-0.435 -1.917,-0.875 -2.747,-1.544 -0.088,-0.071 -0.206,-0.105 -0.368,-0.106 0.039,0.078 0.058,0.185 0.12,0.231 0.629,0.463 1.252,0.937 1.903,1.366 0.788,0.518 1.604,0.993 2.404,1.493 0.561,0.35 1.117,0.709 1.673,1.067 0.065,0.041 0.118,0.101 0.174,0.151 -0.128,0.251 -0.288,0.264 -0.549,0.213 -1.498,-0.298 -2.856,-0.957 -4.224,-1.589 -0.435,-0.201 -0.838,-0.472 -1.257,-0.709 -0.062,-0.035 -0.131,-0.06 -0.196,-0.089 -0.024,0.029 -0.048,0.058 -0.072,0.087 0.118,0.114 0.219,0.257 0.357,0.338 0.649,0.381 1.323,0.722 1.961,1.121 0.992,0.619 2.079,1.018 3.151,1.464 0.66,0.274 1.269,0.673 1.894,1.027 0.067,0.038 0.091,0.152 0.135,0.231 -0.107,0.045 -0.226,0.144 -0.318,0.124 -0.382,-0.083 -0.76,-0.189 -1.132,-0.312 -0.41,-0.135 -0.81,-0.3 -1.217,-0.442 -0.07,-0.024 -0.158,0.004 -0.238,0.008 0.047,0.077 0.075,0.183 0.144,0.229 0.484,0.321 0.998,0.599 1.458,0.951 0.401,0.306 0.743,0.69 1.112,1.039 -0.021,0.037 -0.042,0.073 -0.063,0.109 -0.475,-0.186 -0.953,-0.363 -1.424,-0.56 -0.663,-0.277 -1.339,-0.532 -1.976,-0.861 -1.394,-0.717 -2.772,-1.464 -4.144,-2.22 -0.631,-0.347 -1.265,-0.704 -1.844,-1.128 -1.053,-0.771 -2.067,-1.593 -3.094,-2.398 -0.347,-0.272 -0.703,-0.536 -1.024,-0.837 -0.414,-0.39 -0.788,-0.822 -1.195,-1.22 -0.631,-0.616 -1.304,-1.193 -1.908,-1.834 -0.638,-0.679 -1.242,-1.394 -1.815,-2.128 -0.666,-0.853 -1.285,-1.743 -1.92,-2.62 -0.592,-0.818 -1.216,-1.617 -1.756,-2.469 -0.414,-0.653 -0.72,-1.376 -1.073,-2.068 0.034,-0.029 0.069,-0.057 0.104,-0.085 0.241,0.211 0.529,0.388 0.716,0.639 0.592,0.795 1.146,1.619 1.717,2.43 0.412,0.583 0.822,1.166 1.244,1.742 0.415,0.566 0.822,1.141 1.27,1.681 0.68,0.816 1.38,1.616 2.093,2.403 1.194,1.317 2.492,2.532 3.854,3.669 1.053,0.878 2.173,1.679 3.295,2.469 0.315,0.222 0.742,0.285 1.118,0.421 0.018,-0.03 0.037,-0.06 0.055,-0.09 -0.118,-0.11 -0.232,-0.225 -0.356,-0.328 -0.609,-0.508 -1.241,-0.99 -1.827,-1.524 -0.495,-0.45 -0.957,-0.942 -1.396,-1.448 -0.234,-0.269 -0.406,-0.597 -0.57,-0.916 -0.124,-0.241 0.015,-0.397 0.282,-0.338 0.233,0.051 0.459,0.132 0.76,0.148 -0.054,-0.085 -0.095,-0.182 -0.165,-0.252 -0.187,-0.185 -0.387,-0.359 -0.58,-0.538 -0.265,-0.246 -0.534,-0.488 -0.793,-0.739 -1.071,-1.036 -2.069,-2.131 -2.888,-3.382 -0.655,-0.999 -1.335,-1.981 -1.986,-2.981 -0.489,-0.753 -0.958,-1.521 -1.424,-2.289 -0.595,-0.982 -1.19,-1.965 -1.761,-2.961 -0.453,-0.791 -0.871,-1.601 -1.301,-2.404 -0.497,-0.93 -0.951,-1.876 -1.251,-2.893 -0.124,-0.419 -0.329,-0.814 -0.491,-1.223 -0.041,-0.1 -0.085,-0.212 -0.08,-0.316 0.028,-0.691 0.066,-1.382 0.111,-2.072 0.008,-0.116 0.081,-0.226 0.106,-0.343 0.038,-0.17 0.142,-0.217 0.286,-0.154 0.181,0.079 0.348,0.19 0.53,0.266 0.085,0.035 0.237,0.064 0.276,0.02 0.063,-0.069 0.108,-0.22 0.074,-0.303 -0.367,-0.907 -0.574,-1.849 -0.69,-2.818 -0.103,-0.86 -0.245,-1.715 -0.36,-2.574 -0.024,-0.178 -0.004,-0.361 -0.011,-0.542 -0.023,-0.64 -0.064,-1.281 -0.069,-1.922 -0.003,-0.297 0.024,-0.605 0.101,-0.89 0.468,-1.724 0.931,-3.45 1.443,-5.162 0.33,-1.104 0.709,-2.199 1.443,-3.124 0.53,-0.668 1.051,-1.345 1.592,-2.004 0.13,-0.158 0.37,-0.23 0.485,-0.394 0.345,-0.494 0.683,-0.989 1.158,-1.372 0.025,-0.021 0.025,-0.072 0.066,-0.2 -0.206,0.025 -0.391,-10e-4 -0.522,0.071 -0.559,0.307 -1.101,0.643 -1.623,0.953 0.038,-0.046 0.115,-0.132 0.186,-0.223 0.074,-0.095 0.139,-0.196 0.213,-0.29 1.017,-1.308 2.229,-2.425 3.51,-3.459 0.76,-0.615 1.617,-1.111 2.43,-1.662 0.122,-0.083 0.244,-0.166 0.352,-0.264 0.034,-0.03 0.039,-0.117 0.023,-0.167 -0.014,-0.043 -0.081,-0.101 -0.119,-0.097 -0.303,0.031 -0.603,0.087 -0.905,0.112 -0.813,0.067 -1.487,0.52 -2.217,0.805 -0.583,0.228 -1.145,0.547 -1.659,0.906 -0.81,0.566 -1.588,1.181 -2.352,1.809 -0.986,0.81 -1.881,1.715 -2.689,2.708 -0.563,0.694 -1.174,1.349 -1.747,2.035 -0.329,0.393 -0.624,0.814 -0.935,1.221 -0.046,0.061 -0.095,0.12 -0.17,0.17 0.044,-1.096 -0.002,-2.198 0.398,-3.239 0.237,-0.617 0.485,-1.234 0.794,-1.816 0.338,-0.634 0.688,-1.283 1.15,-1.825 0.667,-0.782 1.42,-1.494 2.172,-2.197 0.637,-0.594 1.317,-1.143 1.994,-1.691 0.42,-0.341 0.863,-0.655 1.31,-0.96 0.478,-0.325 0.975,-0.622 1.46,-0.938 0.764,-0.499 1.619,-0.823 2.414,-1.258 1.338,-0.733 2.808,-1.009 4.261,-1.353 0.749,-0.178 1.51,-0.323 2.272,-0.432 0.341,-0.048 0.701,0.058 1.049,0.04 0.521,-0.028 1.038,-0.104 1.558,-0.158 0.175,-0.018 0.359,-0.002 0.526,-0.048 1.017,-0.279 2.042,-0.55 2.958,-1.093 0.76,-0.45 1.454,-0.975 1.937,-1.754 0.352,-0.57 0.831,-1.06 1.188,-1.627 0.317,-0.505 0.608,-1.045 0.795,-1.608 0.2,-0.603 0.336,-1.247 0.366,-1.88 0.026,-0.548 -0.111,-1.111 -0.22,-1.659 -0.249,-1.257 -0.927,-2.296 -1.737,-3.258 -0.373,-0.443 -0.754,-0.88 -1.151,-1.302 -0.14,-0.148 -0.331,-0.257 -0.513,-0.356 -0.811,-0.44 -1.603,-0.924 -2.448,-1.284 -0.647,-0.275 -1.357,-0.41 -2.047,-0.569 -0.546,-0.126 -1.103,-0.229 -1.66,-0.276 -0.362,-0.031 -0.734,0.059 -1.102,0.092 -0.542,0.05 -1.094,0.052 -1.626,0.155 -1.327,0.258 -2.596,0.684 -3.762,1.394 -1.285,0.782 -2.605,1.509 -3.875,2.316 -0.707,0.45 -1.345,1.011 -2.01,1.528 -0.608,0.474 -1.224,0.94 -1.812,1.438 -0.635,0.538 -1.248,1.102 -1.858,1.668 -1.089,1.01 -2.191,2.007 -3.245,3.052 -0.906,0.898 -1.755,1.854 -2.626,2.788 -0.601,0.644 -1.208,1.283 -1.791,1.943 -0.55,0.624 -1.066,1.278 -1.609,1.908 -1.079,1.253 -1.79,2.735 -2.603,4.154 -0.364,0.635 -0.791,1.235 -1.143,1.876 -0.336,0.615 -0.62,1.26 -0.911,1.899 -0.497,1.095 -0.991,2.193 -1.467,3.298 -0.206,0.478 -0.391,0.969 -0.539,1.468 -0.372,1.262 -0.761,2.522 -1.062,3.801 -0.334,1.417 -0.644,2.843 -0.75,4.302 -0.074,1.012 -0.169,2.021 -0.241,3.032 -0.008,0.114 0.105,0.232 0.117,0.352 0.032,0.339 0.035,0.681 0.06,1.021 0.007,0.083 0.057,0.164 0.087,0.246 0.038,-0.086 0.105,-0.17 0.111,-0.259 0.063,-0.871 0.055,-1.753 0.191,-2.612 0.102,-0.646 0.083,-1.297 0.218,-1.939 0.371,-1.766 0.741,-3.528 1.283,-5.254 0.507,-1.613 1.125,-3.178 1.818,-4.716 0.224,-0.496 0.522,-0.959 0.785,-1.438 0.029,0.008 0.058,0.016 0.086,0.023 0,0.081 0.028,0.175 -0.004,0.24 -0.432,0.882 -0.62,1.841 -0.865,2.78 -0.381,1.455 -0.788,2.905 -1.101,4.376 -0.27,1.273 -0.435,2.569 -0.626,3.858 -0.267,1.797 -0.34,3.603 -0.213,5.419 0.034,0.483 -0.039,0.974 0,1.456 0.078,0.966 0.132,1.934 0.354,2.887 0.142,0.611 0.16,1.251 0.242,1.877 0.083,0.625 0.152,1.254 0.27,1.873 0.264,1.389 0.537,2.776 0.84,4.157 0.151,0.685 0.36,1.36 0.573,2.03 0.337,1.06 0.669,2.124 1.064,3.163 0.248,0.654 0.59,1.276 0.923,1.895 0.378,0.705 0.749,1.421 1.203,2.077 0.588,0.848 1.247,1.648 1.89,2.456 0.164,0.206 0.385,0.366 0.58,0.547 0.042,-0.03 0.083,-0.06 0.125,-0.09 -0.08,-0.201 -0.16,-0.401 -0.242,-0.601 -0.295,-0.723 -0.626,-1.434 -0.875,-2.173 -0.2,-0.595 -0.306,-1.222 -0.439,-1.838 -0.021,-0.099 0.011,-0.295 0.059,-0.309 0.176,-0.053 0.398,-0.116 0.55,-0.052 0.489,0.208 0.651,0.721 0.92,1.125 0.74,1.112 1.454,2.242 2.179,3.364 0.604,0.935 1.176,1.893 1.822,2.797 0.518,0.725 1.132,1.38 1.692,2.075 0.282,0.351 0.518,0.739 0.809,1.081 0.488,0.574 0.97,1.158 1.514,1.675 0.762,0.725 1.59,1.38 2.368,2.088 0.915,0.834 1.89,1.577 2.94,2.235 0.839,0.526 1.61,1.16 2.446,1.691 0.928,0.591 1.883,1.14 2.847,1.67 0.992,0.545 1.999,1.065 3.018,1.558 0.749,0.362 1.532,0.652 2.292,0.99 0.808,0.36 1.595,0.765 2.413,1.099 0.797,0.326 1.611,0.621 2.436,0.87 1.278,0.387 2.57,0.726 3.857,1.08 0.174,0.047 0.357,0.062 0.536,0.09 0.368,0.059 0.379,0.053 0.612,-0.298 -0.6,-0.158 -1.205,-0.288 -1.791,-0.477 -1.058,-0.341 -2.105,-0.716 -3.156,-1.079 -0.493,-0.171 -0.997,-0.318 -1.475,-0.523 -1.124,-0.482 -2.239,-0.985 -3.351,-1.496 -0.728,-0.335 -1.462,-0.666 -2.162,-1.055 -1.456,-0.809 -2.893,-1.652 -4.335,-2.486 -1.728,-1 -3.247,-2.294 -4.828,-3.497 -0.648,-0.493 -1.203,-1.109 -1.804,-1.665 -0.483,-0.447 -0.989,-0.872 -1.455,-1.337 -0.438,-0.438 -0.834,-0.917 -1.254,-1.372 -0.353,-0.383 -0.715,-0.758 -1.071,-1.137 -0.039,-0.041 -0.068,-0.091 -0.07,-0.167 l 0.201,0.148 c 0.011,-0.008 0.022,-0.016 0.034,-0.024 -0.056,-0.074 -0.107,-0.152 -0.168,-0.222 -0.773,-0.885 -1.603,-1.727 -2.305,-2.665 -0.78,-1.041 -1.475,-2.151 -2.149,-3.266 -0.546,-0.903 -1.022,-1.849 -1.496,-2.794 -0.284,-0.566 -0.497,-1.168 -0.756,-1.749 -0.203,-0.455 -0.464,-0.887 -0.633,-1.354 -0.42,-1.159 -0.817,-2.327 -1.195,-3.5 -0.27,-0.841 -0.505,-1.694 -0.734,-2.548 -0.086,-0.317 -0.114,-0.651 -0.156,-0.978 -0.009,-0.07 0.035,-0.147 0.137,-0.257 0.099,0.135 0.234,0.257 0.29,0.408 0.422,1.127 0.804,2.27 1.246,3.39 0.558,1.414 1.132,2.824 1.756,4.21 0.424,0.941 0.946,1.838 1.426,2.754 0.222,0.425 0.434,0.856 0.678,1.269 0.352,0.595 0.716,1.184 1.097,1.761 0.319,0.484 0.666,0.95 1.006,1.421 0.08,0.111 0.177,0.209 0.309,0.362 0.006,-0.117 0.027,-0.173 0.008,-0.204 -0.618,-1.019 -1.272,-2.018 -1.852,-3.058 -0.571,-1.025 -1.079,-2.082 -1.441,-3.208 -0.344,-1.071 -0.744,-2.124 -1.132,-3.18 -0.648,-1.764 -1.225,-3.545 -1.419,-5.427 -0.014,-0.134 0.025,-0.273 0.033,-0.35 0.428,1.354 0.833,2.762 1.323,4.14 0.338,0.953 0.803,1.86 1.198,2.794 0.586,1.386 1.379,2.653 2.211,3.899 0.712,1.066 1.4,2.154 2.178,3.172 0.876,1.145 1.825,2.236 2.773,3.325 0.645,0.741 1.341,1.438 2.016,2.154 0.061,0.066 0.119,0.167 0.193,0.181 0.1,0.02 0.214,-0.028 0.323,-0.046 -0.031,-0.076 -0.044,-0.167 -0.094,-0.226 -0.884,-1.038 -1.809,-2.042 -2.649,-3.114 -0.812,-1.035 -1.568,-2.118 -2.289,-3.219 -0.588,-0.897 -1.125,-1.832 -1.616,-2.786 -0.546,-1.06 -1.083,-2.136 -1.493,-3.253 -0.281,-0.765 -0.537,-1.569 -0.519,-2.418 0.006,-0.262 -0.051,-0.525 -0.079,-0.788 0.024,-0.005 0.048,-0.01 0.072,-0.016 0.223,0.485 0.446,0.97 0.67,1.454 0.703,1.519 1.383,3.05 2.12,4.554 0.37,0.754 0.866,1.445 1.262,2.188 0.355,0.669 0.817,1.251 1.303,1.823 0.289,0.34 0.527,0.722 0.803,1.073 0.668,0.854 1.32,1.723 2.027,2.544 0.601,0.698 1.279,1.329 1.907,2.005 1.133,1.218 2.393,2.295 3.752,3.242 1.335,0.93 2.726,1.778 4.092,2.662 1.573,1.017 3.338,1.621 5.044,2.355 1.331,0.572 2.673,1.102 4.073,1.48 0.172,0.046 0.342,0.125 0.494,0.218 0.086,0.053 0.135,0.167 0.201,0.253 -0.016,0.034 -0.031,0.068 -0.047,0.102 -0.184,0 -0.369,-0.01 -0.552,0.005 -0.077,0.006 -0.15,0.065 -0.225,0.1 0.041,0.063 0.067,0.155 0.125,0.183 0.148,0.071 0.306,0.129 0.467,0.164 0.921,0.206 1.838,0.431 2.767,0.592 0.58,0.101 1.179,0.08 1.765,0.149 0.605,0.072 1.202,0.228 1.808,0.273 0.754,0.055 1.512,0.04 2.269,0.046 0.519,0.003 1.039,-0.003 1.558,-0.018 0.24,-0.007 0.479,-0.035 0.716,-0.07 0.87,-0.13 1.735,-0.295 2.608,-0.393 1.089,-0.122 2.118,-0.521 3.194,-0.675 1.227,-0.177 2.346,-0.676 3.505,-1.056 0.934,-0.306 1.865,-0.626 2.782,-0.979 0.502,-0.193 0.973,-0.469 1.458,-0.705 1.145,-0.558 2.296,-1.104 3.434,-1.675 0.437,-0.22 0.847,-0.494 1.27,-0.742 0.078,-0.046 0.158,-0.089 0.236,-0.134 0.509,-0.294 1.038,-0.559 1.521,-0.891 0.551,-0.377 1.072,-0.8 1.586,-1.229 0.884,-0.737 1.783,-1.463 2.622,-2.251 1.456,-1.366 2.882,-2.765 4.295,-4.176 0.523,-0.522 0.972,-1.118 1.483,-1.669 -0.084,0.158 -0.16,0.32 -0.251,0.473 -0.637,1.069 -1.257,2.148 -1.926,3.196 -0.278,0.437 -0.653,0.813 -1.001,1.202 -0.721,0.805 -1.435,1.619 -2.187,2.394 -0.557,0.575 -1.176,1.09 -1.758,1.642 -0.349,0.331 -0.661,0.703 -1.025,1.017 -0.531,0.457 -1.096,0.874 -1.642,1.315 -1.064,0.858 -2.241,1.533 -3.485,2.085 -0.611,0.271 -1.268,0.44 -1.904,0.658 -0.092,0.032 -0.191,0.065 -0.264,0.125 -0.038,0.03 -0.045,0.125 -0.031,0.182 0.007,0.027 0.096,0.055 0.143,0.05 0.687,-0.081 1.388,-0.107 2.057,-0.267 0.905,-0.216 1.798,-0.501 2.672,-0.82 0.744,-0.271 1.47,-0.604 2.176,-0.963 0.695,-0.352 1.359,-0.766 2.031,-1.163 0.43,-0.254 0.85,-0.527 1.275,-0.791 0.017,0.021 0.034,0.043 0.05,0.064 -0.249,0.208 -0.484,0.436 -0.749,0.62 -0.706,0.489 -1.406,0.992 -2.145,1.426 -0.705,0.415 -1.457,0.75 -2.189,1.119 -0.044,0.022 -0.114,0.01 -0.142,0.042 -0.107,0.116 -0.202,0.244 -0.302,0.367 0.14,-0.001 0.29,0.029 0.419,-0.008 1.912,-0.556 3.691,-1.408 5.395,-2.429 1.499,-0.898 2.933,-1.887 4.234,-3.055 0.411,-0.369 0.78,-0.784 1.162,-1.184 1.151,-1.2 2.06,-2.577 2.932,-3.985 0.575,-0.929 1.192,-1.833 1.768,-2.763 0.337,-0.544 0.622,-1.12 0.944,-1.674 0.203,-0.348 0.472,-0.662 0.639,-1.025 0.376,-0.82 0.735,-1.651 1.048,-2.498 0.282,-0.761 0.488,-1.551 0.739,-2.324 0.322,-0.991 0.674,-1.973 0.978,-2.97 0.215,-0.708 0.382,-1.431 0.549,-2.152 0.177,-0.762 0.26,-1.554 0.51,-2.289 0.314,-0.921 0.326,-1.877 0.489,-2.813 0.156,-0.899 0.247,-1.81 0.346,-2.719 0.099,-0.917 0.175,-1.837 0.258,-2.756 0.039,-0.428 0.081,-0.855 0.105,-1.284 0.05,-0.888 0.099,-1.776 0.126,-2.665 0.019,-0.591 -0.008,-1.184 -0.004,-1.775 0.004,-0.491 0.056,-0.983 0.029,-1.471 -0.037,-0.665 -0.127,-1.327 -0.196,-1.99 C 10.571,17.787 10.552,17.16 10.429,16.554 10.134,15.104 9.83,13.653 9.453,12.223 9.157,11.095 8.747,9.997 8.388,8.886 8.216,8.351 8.098,7.791 7.865,7.284 7.445,6.369 7.249,5.372 6.736,4.486 6.293,3.723 5.999,2.875 5.61,2.079 5.322,1.491 4.991,0.924 4.67,0.353 4.42,-0.091 4.16,-0.531 3.896,-0.967 3.771,-1.173 3.631,-1.369 3.493,-1.566 2.904,-2.412 2.326,-3.266 1.717,-4.098 1.362,-4.582 0.951,-5.026 0.574,-5.495 0.142,-6.032 -0.27,-6.584 -0.711,-7.114 c -0.256,-0.308 -0.543,-0.591 -0.827,-0.875 -0.808,-0.807 -1.63,-1.601 -2.431,-2.415 -0.9,-0.916 -1.902,-1.708 -2.938,-2.461 -0.818,-0.596 -1.597,-1.25 -2.447,-1.795 -1.19,-0.763 -2.41,-1.482 -3.713,-2.051 -0.993,-0.433 -1.948,-0.95 -2.941,-1.385 -0.836,-0.366 -1.691,-0.698 -2.556,-0.989 -1.225,-0.412 -2.465,-0.784 -3.705,-1.148 -0.338,-0.1 -0.701,-0.11 -1.053,-0.162 -0.007,0.036 -0.014,0.072 -0.021,0.107 0.308,0.083 0.622,0.149 0.924,0.251 0.642,0.218 1.286,0.433 1.914,0.687 1.365,0.553 2.714,1.143 4.081,1.691 1.264,0.507 2.44,1.181 3.586,1.9 0.555,0.348 1.032,0.821 1.542,1.239 0.025,0.021 0.033,0.064 0.066,0.133 -0.678,-0.315 -1.312,-0.623 -1.958,-0.905 -0.541,-0.235 -1.091,-0.451 -1.644,-0.654 -1.274,-0.467 -2.549,-0.933 -3.832,-1.374 -0.625,-0.215 -1.267,-0.385 -1.908,-0.55 -0.152,-0.039 -0.332,0.013 -0.495,0.046 -0.042,0.009 -0.095,0.111 -0.089,0.163 0.006,0.045 0.085,0.104 0.14,0.115 1.149,0.236 2.226,0.666 3.276,1.177 0.632,0.307 1.297,0.551 1.906,0.897 1.418,0.805 2.853,1.587 4.138,2.609 0.447,0.354 0.961,0.627 1.395,0.994 0.602,0.508 1.281,0.955 1.664,1.775 -0.767,-0.34 -1.476,-0.654 -2.185,-0.966 -0.064,-0.028 -0.133,-0.066 -0.199,-0.064 -0.07,0.002 -0.168,0.028 -0.198,0.078 -0.025,0.041 0.011,0.158 0.057,0.195 0.193,0.154 0.401,0.29 0.602,0.435 0.463,0.333 0.942,0.647 1.384,1.007 0.582,0.475 1.122,1.002 1.703,1.478 0.47,0.386 0.945,0.757 1.366,1.203 0.416,0.442 0.906,0.813 1.347,1.233 0.587,0.559 1.168,1.125 1.734,1.706 0.444,0.456 0.884,0.92 1.286,1.413 0.618,0.76 1.202,1.549 1.8,2.325 C 0.04,-0.034 0.02,-0.017 0,0" style="fill:#a0d856;fill-opacity:1;fill-rule:nonzero;stroke:none" id="path3515"/>
          </g>
        </g>
      </g>
    </g>
  </g>
</svg>
